<?xml version="1.0" encoding="UTF-8"?>
<svg xmlns="http://www.w3.org/2000/svg" width="234" height="41" viewBox="0 0 234 41" fill="none">
  <g clip-path="url(#clip0_538_3395)">
    <path d="M11.1961 23.9479H3.83422V31.7765C3.83422 32.7857 2.97434 33.6372 1.95587 33.6372H1.87834C0.859879 33.6372 0 32.8628 0 31.8536V11.6269C0 10.6177 0.782349 9.76613 1.80081 9.76613H11.1961C16.7536 9.76613 19.3367 13.1758 19.3367 16.8973C19.3367 20.6189 16.7536 23.9479 11.1961 23.9479ZM11.7423 13.2529H3.91527V20.4612H11.7423C13.6982 20.6154 15.3439 19.2207 15.499 17.2828V16.8938C15.5765 14.956 14.0893 13.33 12.1335 13.2494H11.7423V13.2529ZM45.7956 33.7143C44.7772 33.7143 43.9173 32.9399 43.9173 31.9307V23.17H32.0975V31.773C32.175 32.7822 31.3926 33.5566 30.3742 33.6337H30.2191C29.2007 33.6337 28.3408 32.8593 28.3408 31.8501V11.6234C28.3408 10.6142 29.2007 9.76263 30.2191 9.76263C31.2376 9.76263 32.0975 10.6142 32.0975 11.6234V19.6832H43.9173V11.6234C43.9173 10.6142 44.7772 9.76263 45.7992 9.76263C46.8211 9.76263 47.6775 10.6142 47.6775 11.6234V31.7765C47.755 32.7857 46.8951 33.6372 45.8767 33.7143H45.7921H45.7956ZM113.197 13.33H106.23V31.7765C106.23 32.8628 105.37 33.7143 104.274 33.7143C103.256 33.7143 102.396 32.8628 102.396 31.8536V13.33H95.429C94.4105 13.33 93.6282 12.5555 93.6282 11.5463C93.6282 10.5371 94.4105 9.76263 95.429 9.76263H113.197C114.216 9.76263 114.998 10.5371 114.998 11.5463C114.998 12.5555 114.216 13.33 113.197 13.33ZM132.376 33.8685C125.722 33.8685 120.32 28.4439 120.397 21.8559V21.7017C120.552 15.1137 126.032 9.99741 132.689 10.1516C139.343 10.3058 144.509 15.7304 144.354 22.3184C144.199 28.7523 138.874 33.8685 132.376 33.8685ZM132.376 13.0952C127.445 13.0952 124.157 17.1251 124.157 21.7753C124.157 26.4254 127.445 30.4554 132.376 30.4554C137.306 30.4554 140.597 26.4254 140.597 21.7753C140.597 17.1251 137.309 13.0917 132.376 13.0917V13.0952ZM165.019 33.7108H156.015C154.919 33.7108 154.059 32.8593 154.059 31.773V11.697C154.059 10.6107 154.919 9.75912 156.015 9.75912H164.392C169.012 9.75912 171.75 12.1631 171.75 15.6498C171.75 17.9766 170.732 19.9916 168.854 20.9202C171.514 21.7718 173.238 24.2528 173.16 27.0422C173.238 30.7602 170.186 33.7073 165.019 33.7073V33.7108ZM164.706 13.3265H158.052V19.3713H164.706C166.429 19.3713 167.758 18.0537 167.758 16.3472C167.758 14.6406 166.425 13.3265 164.706 13.3265ZM165.566 22.781H158.052V30.1435H165.566C167.599 30.2206 169.322 28.6717 169.403 26.6567V26.5025C169.403 24.4876 167.758 22.781 165.724 22.781H165.566ZM193.903 33.865C187.249 33.865 181.847 28.4404 181.924 21.8524V21.6982C182.079 15.1101 187.559 9.99391 194.216 10.1481C200.87 10.3023 206.036 15.7269 205.881 22.3149C205.726 28.7453 200.401 33.8615 193.906 33.8615L193.903 33.865ZM193.903 13.0917C188.973 13.0917 185.685 17.1216 185.685 21.7718C185.685 26.4219 188.973 30.4519 193.903 30.4519C198.833 30.4519 202.121 26.4184 202.121 21.7683C202.121 17.1181 198.833 13.0882 193.903 13.0882V13.0917ZM233.436 33.3989C233.122 33.6302 232.731 33.7879 232.34 33.7879C232.055 33.7879 231.776 33.7248 231.519 33.6022C231.262 33.4831 231.036 33.3043 230.853 33.0871L224.355 24.5612L217.86 33.0871C217.546 33.476 217 33.7844 216.45 33.7844C216.059 33.7844 215.668 33.6302 215.354 33.3954C214.963 33.0871 214.727 32.621 214.727 32.0778C214.727 31.6889 214.804 31.3034 215.118 30.9915L222.163 21.7683L215.118 12.545C214.882 12.2366 214.727 11.8477 214.727 11.4587C214.727 10.9155 215.04 10.3724 215.509 10.064C215.823 9.9098 216.136 9.75562 216.45 9.75562C217 9.75562 217.546 9.9869 217.86 10.453L224.277 18.9018L230.775 10.453C231.089 10.064 231.558 9.75562 232.108 9.75562C232.499 9.75562 232.89 9.90981 233.204 10.1446C233.595 10.4565 233.908 10.9961 233.908 11.5393C233.908 11.9283 233.753 12.2366 233.517 12.5485L226.469 21.6947L233.591 30.9179C233.827 31.2298 233.982 31.6153 233.982 32.0042C234.06 32.5439 233.827 33.0871 233.436 33.3989ZM68.4979 2.16887C68.4979 3.25519 69.2027 5.8904 69.5163 8.21374C69.83 10.5406 69.83 12.4749 70.7674 12.4749C71.3947 12.4749 71.7858 12.0089 71.7858 11.2344C71.7858 10.46 72.4907 7.67057 72.4907 5.26664C72.4907 4.4922 72.8043 4.33451 72.8043 3.17459C72.8043 2.01468 72.3356 -0.00378418 70.4573 -0.00378418C69.3613 -0.00378418 68.5014 0.928353 68.5014 2.01117V2.16536L68.4979 2.16887ZM77.3433 17.2828C79.6129 17.2828 83.6832 13.2529 84.6241 12.941C85.2514 12.7868 85.7976 12.3207 86.1888 11.7776C86.5025 11.1573 87.1297 10.7684 87.831 10.6913C88.3808 10.46 89.3182 9.99391 89.3182 9.29656C89.3182 8.59921 89.0046 8.36442 88.5359 8.36442C85.484 8.36442 75.5425 12.9375 75.5425 15.7269C75.6165 16.6555 76.4024 17.3564 77.3398 17.2758L77.3433 17.2828ZM74.4465 24.2598C74.4465 25.8087 75.9337 25.3461 76.0888 26.895C76.2438 28.1355 77.5759 29.6844 78.4358 30.3818C80.0005 31.5452 80.5503 34.4117 82.8198 34.4117C83.5246 34.4888 84.2294 34.0227 84.3069 33.3254V33.0906C84.3069 29.758 77.9671 23.17 75.3839 23.17C74.8377 23.17 74.443 23.4784 74.443 24.2563L74.4465 24.2598ZM56.2833 39.2966C56.2833 40.3059 56.5195 41.0032 57.693 41.0032C59.885 41.0032 61.136 37.0504 63.0954 33.406C64.8187 30.1505 65.9147 29.0642 66.8521 26.7408C67.2433 25.6545 68.3393 26.0435 68.3393 24.9572C68.3393 24.2598 67.793 24.025 67.1657 24.025C64.0328 24.025 56.2833 36.1148 56.2833 39.2931V39.2966ZM62.3871 17.437C63.6417 17.437 65.52 18.9088 65.52 17.3599C65.52 15.1907 60.1986 12.4013 57.5344 12.4013C56.4384 12.4013 55.8922 12.9445 55.8922 13.719C55.9697 16.8973 61.2135 17.437 62.3906 17.437H62.3871Z" fill="#16161D"></path>
  </g>
  <defs>
    <clipPath id="clip0_538_3395">
      <rect width="234" height="41" fill="white"></rect>
    </clipPath>
  </defs>
</svg>
