<?xml version="1.0" encoding="UTF-8"?>
<svg xmlns="http://www.w3.org/2000/svg" width="135" height="61" viewBox="0 0 135 61" fill="none">
  <path d="M27.9358 15.8938C26.2156 17.385 24.3234 16.4361 24.1858 14.4027C23.945 11.2172 23.4977 4.91384 23.2569 1.72828C23.2225 1.32162 23.5321 0.948839 23.9794 0.91495C24.289 0.91495 24.9083 0.881061 25.2179 0.847172C25.6308 0.813283 26.0092 1.11828 26.0436 1.55884C26.25 4.50717 26.9037 13.2166 26.9037 13.2166C26.9037 13.2166 32.8899 8.20106 34.9197 6.47273C35.2294 6.20162 35.7454 6.23551 36.0207 6.5405C36.7775 7.48939 36.0207 6.54051 36.7775 7.48939C37.0872 7.86217 37.0184 8.30273 36.7087 8.57384C34.4381 10.4377 30.1032 14.0638 27.9358 15.8938ZM29.7592 17.7577C28.2454 19.4522 29.2087 21.3161 31.273 21.4516C34.5069 21.6888 40.8372 22.0277 44.0711 22.2649C44.484 22.2988 44.8624 21.9938 44.8968 21.5533C44.9312 21.2483 45 20.6044 45.0344 20.3333C45.0688 19.9266 44.7248 19.5877 44.2775 19.5538C41.2844 19.3505 32.4427 18.8083 32.4427 18.8083C32.4427 18.8083 37.6032 12.9116 39.3578 10.9122C39.633 10.6072 39.5986 10.0988 39.289 9.82773C38.3257 9.08217 39.289 9.82773 38.3257 9.08217C37.9473 8.77717 37.5 8.84495 37.2248 9.14995C35.367 11.3527 31.6858 15.6227 29.7592 17.7577ZM36.5711 36.7694C36.8808 37.0405 36.9496 37.4811 36.6399 37.8538C35.883 38.8027 36.6399 37.8538 35.883 38.8027C35.6422 39.1077 35.0918 39.1416 34.7821 38.8705C32.7867 37.1761 26.6973 32.2283 26.6973 32.2283C26.6973 32.2283 26.1468 40.8699 25.9404 43.8183C25.906 44.2588 25.5275 44.5638 25.1147 44.5299C24.8051 44.4961 24.1858 44.4622 23.9106 44.4622C23.4977 44.4283 23.1537 44.0555 23.1881 43.6488C23.4289 40.4633 23.8762 34.1938 24.117 31.0083C24.2546 29.0088 26.1468 27.9922 27.9014 29.4494C30.0344 31.1777 34.3005 34.8377 36.5711 36.7694ZM37.1904 36.1594C37.4656 36.4644 37.9129 36.5322 38.2913 36.2272C39.2546 35.4816 38.2913 36.2272 39.2546 35.4816C39.5642 35.2444 39.5986 34.7022 39.3234 34.3972C37.6032 32.4316 32.5115 26.6027 32.5115 26.6027C32.5115 26.6027 41.3188 25.9588 44.3463 25.7216C44.7936 25.6877 45.1032 25.3149 45.0688 24.9083C45.0344 24.6033 45 23.9933 45 23.7222C44.9656 23.3155 44.5872 22.9766 44.1743 23.0105C40.9404 23.2477 34.5413 23.6544 31.3074 23.8916C29.2775 24.0272 28.3142 25.8572 29.7936 27.5855C31.6514 29.7883 35.3326 34.0244 37.1904 36.1594ZM9.15139 8.60773C8.84176 8.33662 8.77295 7.89606 9.08259 7.52328C9.83947 6.57439 9.08259 7.52328 9.83947 6.57439C10.0803 6.26939 10.6308 6.23551 10.9404 6.50662C12.9358 8.20106 18.9908 13.2166 18.9908 13.2166C18.9908 13.2166 19.5757 4.54106 19.7821 1.55884C19.8165 1.11828 20.195 0.813283 20.6078 0.847172C20.9174 0.881061 21.5367 0.91495 21.8119 0.91495C22.2248 0.948839 22.5688 1.32162 22.5344 1.72828C22.2936 4.91384 21.9152 11.1494 21.6743 14.3688C21.5367 16.3683 19.6789 17.3172 17.9243 15.8599C15.6881 13.9961 11.3188 10.4377 9.15139 8.60773ZM8.53213 9.18384C8.2569 8.87884 7.80965 8.81106 7.43121 9.11606C6.46791 9.86162 7.43121 9.11606 6.46791 9.86162C6.15827 10.0988 6.12387 10.6411 6.3991 10.9461C8.11928 12.9116 13.2798 18.7744 13.2798 18.7744C13.2798 18.7744 4.40369 19.3844 1.41057 19.5877C0.96332 19.6216 0.653687 19.9944 0.68809 20.4011C0.722494 20.7061 0.756898 21.3161 0.756898 21.5872C0.791301 21.9938 1.16974 22.3327 1.58259 22.2988C4.81653 22.0277 11.25 21.6888 14.484 21.4516C16.617 21.3161 17.2707 19.2488 15.9977 17.7577C14.1055 15.6227 10.3899 11.3527 8.53213 9.18384ZM17.7867 29.4833C19.5069 27.9922 21.3991 28.9411 21.5367 30.9744C21.7775 34.16 22.2248 40.4294 22.4656 43.6149C22.5 44.0216 22.1904 44.3944 21.7431 44.4283C21.4335 44.4622 20.8142 44.4961 20.539 44.4961C20.1262 44.53 19.7477 44.2249 19.7133 43.7844C19.5069 40.8361 18.8876 32.1266 18.8876 32.1266C18.8876 32.1266 12.9014 37.1083 10.906 38.8366C10.5963 39.1077 10.0803 39.0738 9.80506 38.7688C9.04818 37.82 9.80506 38.7688 9.04818 37.82C8.73855 37.4472 8.80736 37.0066 9.11699 36.7355C11.2844 34.9055 15.6193 31.3472 17.7867 29.4833ZM15.9977 27.7888C17.5115 26.0944 16.5482 24.2305 14.484 24.0949C11.25 23.8577 4.81653 23.3494 1.58259 23.1122C1.16974 23.0783 0.791301 23.3833 0.756898 23.8238C0.722494 24.1288 0.68809 24.705 0.653687 25.01C0.653687 25.4166 0.96332 25.7555 1.41057 25.7894C4.40369 25.9927 13.2798 26.535 13.2798 26.535C13.2798 26.535 8.15369 32.4316 6.3647 34.4311C6.08947 34.7361 6.12387 35.2444 6.4335 35.5155C7.39681 36.2611 6.4335 35.5155 7.39681 36.2611C7.77525 36.5661 8.2225 36.4983 8.49772 36.1933C10.3899 34.0244 14.1055 29.9238 15.9977 27.7888Z" fill="#16161D"></path>
  <path d="M66.8464 35.9561C66.2615 35.3122 65.3326 35.6511 65.1606 36.2949C65.023 36.7694 64.6101 37.9555 64.6101 37.9555C63.5092 36.8372 61.2042 35.2444 57.7638 35.2444C52.6033 35.2444 48.406 39.4127 48.406 44.5299C48.406 49.6133 52.6377 53.7477 57.7638 53.7477C60.2065 53.7477 62.7523 52.6633 64.3693 51.0366V52.5955C64.3693 53.0361 64.7133 53.3749 65.1606 53.3749H66.3991C66.8464 53.3749 67.1904 53.0361 67.1904 52.5955V36.8033C67.1216 36.4644 67.0184 36.1933 66.8464 35.9561ZM57.7638 51.0366C54.117 51.0366 51.1583 48.1222 51.1583 44.5299C51.1583 40.8361 54.0482 37.9894 57.7638 37.9894C61.5482 37.9894 64.3693 40.9038 64.3693 44.5299C64.3693 47.7155 61.8922 51.0366 57.7638 51.0366Z" fill="#16161D"></path>
  <path d="M86.078 35.2444C83.6353 35.2444 81.0894 36.295 79.4725 37.9216V23.4511C79.4725 23.0105 79.1284 22.6716 78.6812 22.6716H77.4427C76.9954 22.6716 76.6514 23.0105 76.6514 23.4511C76.6514 27.3822 76.6514 46.1227 76.6514 52.3244C76.6514 52.9005 77.0986 53.3411 77.6835 53.3411C78.0963 53.3411 78.5092 53.0022 78.6468 52.5955C78.7844 52.155 79.2316 50.9688 79.2316 50.9688C80.6422 52.4939 83.1193 53.7139 86.0436 53.7139C91.2041 53.7139 95.4014 49.5455 95.4014 44.4961C95.4358 39.3789 91.2041 35.2444 86.078 35.2444ZM86.078 51.0366C82.5344 51.0366 79.4725 48.2916 79.4725 44.53C79.4725 40.4294 82.844 37.9894 86.078 37.9894C89.6904 37.9894 92.7179 40.9716 92.7179 44.53C92.7179 48.2239 89.5871 51.0366 86.078 51.0366Z" fill="#16161D"></path>
  <path d="M71.2845 22.7056H72.4886C72.9014 22.7056 73.2455 23.0445 73.2455 23.485V52.5617C73.2455 53.0022 72.9014 53.3411 72.4886 53.3411H71.2845C70.8716 53.3411 70.5276 53.0022 70.5276 52.5617V23.4511C70.5276 23.0445 70.8716 22.7056 71.2845 22.7056Z" fill="#16161D"></path>
  <path d="M120.103 22.6716H121.307C121.72 22.6716 122.064 23.0105 122.064 23.4511V52.5277C122.064 52.9683 121.72 53.3072 121.307 53.3072H120.103C119.69 53.3072 119.346 52.9683 119.346 52.5277V23.4511C119.346 23.0105 119.69 22.6716 120.103 22.6716Z" fill="#16161D"></path>
  <path d="M126.227 22.6716H127.431C127.844 22.6716 128.188 23.0105 128.188 23.4511V52.5277C128.188 52.9683 127.844 53.3072 127.431 53.3072H126.227C125.814 53.3072 125.47 52.9683 125.47 52.5277V23.4511C125.47 23.0105 125.814 22.6716 126.227 22.6716Z" fill="#16161D"></path>
  <path d="M131.594 52.5616V36.3627C131.594 35.9221 131.938 35.5833 132.351 35.5833H133.555C133.968 35.5833 134.312 35.9221 134.312 36.3627V52.5616C134.312 53.0021 133.968 53.341 133.555 53.341H132.351C131.938 53.341 131.594 53.0021 131.594 52.5616Z" fill="#16161D"></path>
  <path d="M132.351 33.1094H133.555C133.968 33.1094 134.312 32.7705 134.312 32.33V29.6527C134.312 29.2122 133.968 28.8733 133.555 28.8733H132.351C131.938 28.8733 131.594 29.2122 131.594 29.6527V32.33C131.594 32.7705 131.938 33.1094 132.351 33.1094Z" fill="#16161D"></path>
  <path d="M116.8 43.9539C116.525 39.04 112.362 35.1766 107.305 35.2444C102.248 35.3122 98.1537 39.345 98.0161 44.2589C97.8784 49.4777 102.145 53.7477 107.408 53.7477C110.745 53.7477 113.635 52.0533 115.321 49.4777C115.528 49.1389 115.459 48.6983 115.149 48.4611L114.117 47.6477C113.773 47.3766 113.291 47.4783 113.05 47.8172C111.881 49.6811 109.782 50.9689 107.374 50.9689C103.865 50.9689 101.009 48.2916 100.768 44.9027H115.94C116.388 44.9027 116.766 44.53 116.766 44.0894C116.8 44.0555 116.8 43.9877 116.8 43.9539ZM101.181 42.2255C102.11 39.7516 104.553 37.9555 107.408 37.9555C110.264 37.9555 112.672 39.7177 113.635 42.2255H101.181Z" fill="#16161D"></path>
</svg>
