<?xml version="1.0" encoding="UTF-8"?>
<svg xmlns="http://www.w3.org/2000/svg" width="214" height="54" viewBox="0 0 214 54" fill="none">
  <g clip-path="url(#clip0_538_3397)">
    <path d="M80.2873 -1.32386e-05C80.597 -0.0104642 80.8226 0.151525 80.9591 0.485955C81.0956 0.820385 81.1743 1.30113 81.1953 1.93864C81.2058 2.35667 81.1586 3.10914 81.0431 4.19604C80.9276 5.28294 80.7597 6.70426 80.5392 8.46002L80.9224 10.221C80.7912 10.6443 80.6599 11.1407 80.5287 11.7103C80.3975 12.2798 80.2873 12.9017 80.1981 13.5758C80.0774 14.3439 79.9619 14.9919 79.8569 15.5249C79.7519 16.0579 79.6522 16.4863 79.5525 16.8155C79.4213 17.3851 79.3058 17.9129 79.2008 18.3989C79.0959 18.8848 79.0224 19.3656 78.9804 19.8359C78.8859 20.9855 78.7495 22.0776 78.571 23.1122C78.3926 24.1469 78.1406 25.1397 77.8205 26.096C77.6053 26.7962 77.2799 28.1235 76.8547 30.083C76.4296 32.0426 75.889 34.6187 75.2329 37.8063C74.9442 39.2328 75.7788 40.3093 75.4009 41.0304C75.0177 41.7515 73.4169 42.1173 72.9445 42.1329C72.7084 42.1382 72.5299 42.0911 72.4197 41.9866C72.3042 41.8821 72.2255 41.6888 72.1835 41.4223C72.1625 41.3282 72.1573 41.2289 72.1625 41.1244C72.1678 41.0147 72.1625 40.6959 72.1468 40.1682C72.1205 39.9696 72.0628 39.771 71.9631 39.5725L72.4459 37.43C72.4197 37.1949 72.3672 36.9388 72.2832 36.6671C72.2622 36.0296 72.3882 34.7389 72.6506 32.7898C72.913 30.8407 73.2962 28.2332 73.8001 24.9568C73.989 23.8752 74.1622 22.6994 74.3249 21.4192C74.3197 21.1997 74.2934 21.0482 74.2567 20.9541C74.2199 20.8653 74.1412 20.8235 74.0362 20.8235C73.8368 20.9228 74.8025 21.0168 74.5821 21.1161L73.8893 20.8078C73.7791 20.8496 73.6006 20.9384 73.186 21.1213C72.9655 21.2206 72.6454 21.3617 72.4774 21.3617C72.131 21.3722 71.5012 21.6282 70.9658 21.67C70.2888 21.7223 69.8164 21.8895 69.491 21.8999C69.0868 21.9104 68.6984 22.1142 68.2471 22.3389C67.7957 22.5583 67.2708 22.4434 66.7932 22.8771C65.9377 23.0286 65.1819 23.2533 64.5206 23.5564C63.8645 23.8595 63.2819 24.2305 62.7833 24.6851C62.5366 24.8941 62.2689 25.1188 61.9803 25.3644C61.8386 25.4951 61.7441 25.9497 61.7074 26.7283C61.6654 27.5016 61.6654 28.5676 61.7074 29.9106C61.7441 31.149 61.8333 32.0582 61.9803 32.633C62.122 33.2131 62.3267 33.5005 62.5839 33.49C62.7466 33.49 62.8935 33.443 63.0195 33.3542C63.1455 33.2705 63.2977 33.1295 63.4709 32.9413C63.5758 32.8107 63.7018 32.6748 63.8435 32.5338C63.9852 32.3927 64.1007 32.2464 64.1899 32.1L64.4051 32.0635C64.5311 32.0426 64.6308 32.0739 64.6938 32.1628C64.762 32.2516 64.7988 32.3874 64.804 32.5703C64.6361 32.9779 64.4681 33.3489 64.3001 33.6781C64.1374 34.0126 63.9905 34.2895 63.8698 34.509C63.3292 35.3816 62.7991 36.2438 62.2742 37.0956C61.9593 37.545 61.5761 37.8899 61.1248 38.1407C60.6734 38.3915 60.1485 38.5221 59.5449 38.543C59.0516 38.5587 58.6632 37.9055 58.3798 36.5835C58.0963 35.2615 57.9126 33.281 57.8339 30.6421C57.8024 29.6232 57.7132 28.7348 57.561 27.9824C57.4088 27.2299 57.1831 26.5872 56.8734 26.049C56.5847 25.5839 56.3853 25.1711 56.2646 24.8105C56.1439 24.45 56.0809 24.1417 56.0756 23.8856C56.0704 23.687 56.1124 23.4571 56.2068 23.2011C56.3013 22.945 56.443 22.6837 56.6372 22.4225C56.8682 22.1246 57.0466 21.879 57.1778 21.6857C57.309 21.4923 57.3825 21.3304 57.3983 21.1997C57.498 20.9071 57.5925 20.5204 57.6817 20.0449C57.7709 19.5694 57.8654 19.0207 57.9756 18.3989C58.0753 17.9756 58.1541 17.3851 58.2223 16.617C58.2905 15.8488 58.3273 14.9292 58.3325 13.8579C58.364 11.82 58.5057 10.268 58.7682 9.20726C59.0306 8.14649 59.1303 7.51421 59.0673 7.31564L58.8836 6.63633C58.9099 6.25487 58.9466 5.76368 59.0043 5.15753C59.0621 4.5566 59.1408 3.86161 59.2458 3.07779C59.4085 2.96283 59.5817 2.80084 59.7811 2.58659C59.9753 2.37235 60.18 2.10585 60.39 1.79232C61.6391 1.28023 62.3109 1.02418 62.4212 1.02418C63.0825 1.0085 63.5811 1.16527 63.917 1.4997C64.2582 1.83413 64.4366 2.3201 64.4524 2.9576C64.4524 3.14049 64.4156 3.39654 64.3264 3.72575C64.2372 4.05495 64.1217 4.46776 63.9905 4.96418C63.8383 5.38745 63.6861 6.16604 63.5234 7.29997C63.3659 8.43389 63.1927 9.88657 63.009 11.658C62.883 12.933 62.7413 14.1349 62.5786 15.2584C62.4212 16.3818 62.227 17.4322 62.0013 18.3989C61.9698 18.5295 61.9488 18.681 61.933 18.8639C61.9383 19.1357 61.9908 19.329 62.0852 19.4492C62.1797 19.5641 62.3162 19.6216 62.4999 19.6164C63.177 19.5432 63.7858 19.4701 64.3316 19.4022C64.5153 19.3969 65.1399 19.1775 66.2054 18.749L68.3153 18.6863C68.6092 18.6758 69.0344 18.634 69.5855 18.5556C70.1418 18.4772 70.5564 18.4302 70.8294 18.425C71.0865 18.4198 71.4487 18.3832 71.9736 18.3205C72.5614 18.2473 72.6559 18.2212 72.976 18.101C73.1807 18.0226 73.5061 18.0644 73.8525 17.9808C74.1937 17.8972 74.2409 17.8606 74.7291 17.6673C74.9652 17.6621 74.834 17.5314 74.9967 17.474C75.1594 17.4165 75.1437 17.3433 75.1437 17.2336C75.2277 16.9932 75.1699 17.2754 75.2749 16.9305C75.3851 16.5804 75.4953 16.178 75.6108 15.7182C75.6371 15.3002 75.6685 14.7933 75.7158 14.2133C75.763 13.628 75.8313 12.9435 75.9152 12.1597C76.1252 10.6965 76.2774 9.49989 76.3719 8.56976C76.4611 7.63962 76.5031 6.98121 76.4926 6.59975C76.4926 6.45344 76.4663 6.31758 76.4243 6.19217C76.3824 6.06676 76.3194 5.96747 76.2249 5.89954C76.0727 5.74278 75.8995 5.54421 75.7105 5.31429C75.826 4.94851 75.9572 4.66111 76.0989 4.45731C76.4978 3.80935 76.839 3.26591 77.1172 2.82697C77.3953 2.39325 77.6263 2.07972 77.8047 1.89161C78.0881 1.57285 78.4293 1.25932 78.8334 0.945797C79.2323 0.632269 79.7152 0.323966 80.2715 0.0156632" fill="#16161D"></path>
    <path d="M76.4034 30.6056C76.5241 30.4697 78.1722 29.8374 78.2981 29.6232C78.4241 29.4089 78.7233 29.1581 78.8912 28.8968L80.7755 27.3553C81.0169 27.0313 81.3895 26.6185 81.8934 26.1117C82.3973 25.6048 83.0271 24.983 83.7724 24.2514C83.8511 24.0476 83.9928 23.8072 84.187 23.5355C84.3812 23.2638 84.6227 22.992 84.9008 22.7203C85.1423 22.4695 85.389 22.2344 85.6304 22.0149C85.8718 21.7954 86.1028 21.5759 86.3127 21.3669C86.5751 21.0795 86.8166 20.7974 87.0528 20.51C87.2837 20.2225 87.5251 19.9508 87.7666 19.6791C88.0447 19.4126 88.3334 19.1931 88.6378 19.0364C88.9422 18.8744 89.2781 18.7855 89.6403 18.7646C90.0392 18.7437 90.3489 18.7803 90.564 18.8692C90.7792 18.958 90.9 19.0938 90.9262 19.2767C90.7635 19.7052 90.5955 20.1337 90.4171 20.5622L90.5955 20.7974C91.3828 20.4472 92.0022 20.1912 92.4483 20.0188C92.8997 19.8515 93.1831 19.7627 93.3143 19.7575C94.6474 19.6896 95.6657 20.0397 96.3742 20.8183C97.0828 21.5916 97.4764 22.7987 97.5604 24.4343C97.5761 24.7426 97.5604 25.1084 97.5079 25.5316C97.4554 25.9549 97.3609 26.4147 97.2245 26.9112C97.067 27.4651 96.8991 27.9301 96.7049 28.3063C96.5107 28.6774 96.3322 28.9543 96.1538 29.1267C96.2377 29.3567 96.327 29.5239 96.4267 29.6179C96.5264 29.712 96.6419 29.7538 96.7889 29.7486C96.9358 29.7434 97.0828 29.6859 97.235 29.5866C97.3872 29.4873 97.5656 29.341 97.7756 29.1477C97.9803 29.5396 98.1797 29.9419 98.3739 30.36C98.5681 30.778 98.7676 31.1908 98.9723 31.5984C98.6573 31.9067 98.3529 32.2046 98.059 32.492C97.7651 32.7794 97.4502 32.8943 97.1195 33.1713C96.7154 33.537 96.2115 33.699 95.8494 33.8715C95.482 34.0439 95.1093 34.1118 94.7419 34.1275C94.322 34.1484 93.33 34.1955 93.0466 34.0126C92.7632 33.8244 93.2986 33.7252 93.1149 33.3698C92.6897 33.9917 92.1649 34.5717 91.5455 35.1047C90.9209 35.6377 90.2281 36.0871 89.4566 36.4529C89.0105 36.6932 88.6063 36.8866 88.2389 37.0224C87.8715 37.1583 87.5304 37.2367 87.2207 37.2524C87.1315 37.2524 86.953 37.3046 86.6906 37.3882C86.4282 37.4718 86.2182 37.5189 86.0503 37.5293C85.0111 37.5816 84.0453 37.1949 83.1636 36.364C82.2765 35.5332 81.8094 34.5821 81.7517 33.5109C81.7307 33.0772 81.7989 32.492 81.9616 31.7656C82.1243 31.0393 82.2031 30.6108 82.1978 30.4801C82.1926 30.3547 82.1453 30.2502 82.0561 30.1718C81.9721 30.0935 81.8514 30.0569 81.7097 30.0673C81.6205 30.0673 81.4053 30.2189 81.0746 30.5063C80.744 30.7989 80.2716 31.2117 79.6575 31.7552C79.605 31.8283 79.5473 31.9433 79.4843 32.0896C79.4213 32.2411 76.3772 34.5978 76.2249 34.7912C76.057 34.3783 76.6133 31.8597 76.4086 31.4416C76.204 31.0236 76.6501 30.9922 76.4086 30.6056M90.8475 24.4865C90.7582 24.5074 90.627 24.6119 90.4643 24.7948C90.3016 24.9777 90.1442 25.1972 89.992 25.4637C89.7558 25.8922 89.4881 26.3625 89.1837 26.8693C88.9947 27.0993 88.79 27.2769 88.5643 27.4076C88.3439 27.5382 88.0867 27.6375 87.798 27.7054C87.6143 27.7315 87.4359 27.9197 87.2522 28.2645C87.0685 28.6094 86.8953 29.1111 86.7273 29.7538C86.5541 30.3286 86.4334 30.8146 86.3652 31.2169C86.2917 31.6245 86.2655 31.959 86.2812 32.2307C86.3075 32.7428 86.4544 33.1138 86.7221 33.3594C86.9898 33.5998 87.3887 33.7043 87.9188 33.6781C88.7585 33.6363 89.5196 33.3646 90.1966 32.863C90.8737 32.3613 91.5035 31.635 92.0756 30.6735C92.3486 30.3129 92.6057 29.9733 92.8472 29.6493C92.9889 29.5343 93.0991 29.3514 93.1778 29.1006C93.2566 28.8498 93.3353 28.5415 93.4035 28.1757L93.8182 26.5976C93.624 26.0594 93.4455 25.6361 93.2881 25.3278C93.1253 25.0143 92.9679 24.8314 92.8209 24.7635C92.7265 24.7165 92.5218 24.6642 92.2121 24.6172C91.8972 24.5701 91.4458 24.5231 90.858 24.4813" fill="#16161D"></path>
    <path d="M97.7075 29.5186C97.781 29.3932 97.8755 29.2521 97.9962 29.0954C98.1169 28.9386 98.2586 28.7557 98.4213 28.5363C98.857 27.8987 99.2244 27.3501 99.5183 26.885C99.8122 26.4199 100.022 26.0594 100.148 25.8086C100.405 25.3383 100.61 24.8471 100.767 24.335C100.925 23.8281 101.046 23.2951 101.14 22.7517C101.507 20.1494 102.148 17.3537 103.056 14.37C103.969 11.3863 105.129 8.1726 106.541 4.73424C107.055 3.53238 107.601 2.62838 108.184 2.017C108.772 1.40562 109.37 1.10254 109.994 1.10254C110.467 1.10254 110.855 1.1966 111.144 1.38994C111.438 1.58328 111.627 1.88636 111.721 2.3044C111.758 2.46639 111.789 2.74856 111.816 3.15092C111.842 3.55328 111.858 4.07061 111.858 4.70811C111.858 4.85443 111.711 6.15557 111.417 8.61154C111.123 9.82907 110.713 11.3445 110.183 13.1577C109.653 14.9657 108.997 17.0663 108.21 19.4492C108.026 19.7784 107.816 20.1964 107.58 20.7033C107.344 21.2154 107.05 21.8215 106.704 22.5322C106.646 22.6576 106.588 22.83 106.525 23.0391C106.462 23.2481 106.373 23.478 106.263 23.734C106.137 23.8595 105.995 24.0737 105.838 24.3611C105.68 24.6537 105.502 25.0143 105.302 25.4532C104.972 26.4722 104.657 27.7577 104.357 29.3044C104.053 30.8511 103.775 32.68 103.523 34.7911C103.266 36.7768 103.077 38.543 102.946 40.1002C102.82 41.6574 102.751 43.0056 102.751 44.1552C102.767 44.5941 102.804 45.0487 102.862 45.519C102.914 46.0834 102.977 46.5171 103.04 46.8149C103.103 47.1128 103.192 47.2643 103.302 47.2643C103.56 47.2643 103.953 46.7052 104.494 45.587C105.035 44.4687 105.733 42.7861 106.593 40.5496L106.509 40.0062C106.583 39.8442 106.688 39.6351 106.824 39.3791C106.961 39.1231 107.076 38.7991 107.165 38.3967C107.622 36.9388 107.958 35.8101 108.178 35.0002C108.399 34.1902 108.535 33.7304 108.588 33.6206C108.845 32.8943 108.451 31.8962 107.816 31.3998C106.499 30.3808 104.699 28.0503 105.328 25.772C105.166 26.3572 105.491 22.5949 107.911 22.8144C111.663 23.154 110.561 30.7257 110.687 31.0131C110.43 31.3423 110.624 32.5755 110.661 32.8577C110.761 33.6102 110.692 34.0596 110.661 34.8486C110.64 35.3816 110.446 35.9669 110.325 36.4999C110.204 37.0381 110.084 37.5502 109.958 38.0414C109.044 41.5163 108.147 44.406 107.27 46.7104C106.394 49.0096 105.559 50.7288 104.777 51.8575C104.651 52.0927 104.499 52.3278 104.326 52.5682C104.153 52.8033 103.995 53.0332 103.848 53.2475C103.628 53.4826 103.402 53.6708 103.166 53.8066C102.93 53.9425 102.683 54.0104 102.426 54.0104C101.639 54.0104 101.014 53.838 100.547 53.4931C100.08 53.1482 99.7545 52.6257 99.576 51.9359C99.4868 51.3559 99.4081 50.7758 99.3451 50.201C99.2821 49.6262 99.2139 49.0619 99.1404 48.4975C99.0302 48.1318 98.9514 47.7555 98.8937 47.3636C98.8412 46.9717 98.8097 46.538 98.8097 46.0677V41.9187C98.8097 41.7201 98.8517 41.4066 98.9357 40.9885C99.0197 40.5705 99.0564 40.2518 99.0564 40.0323C98.9462 39.4888 98.836 38.9349 98.7257 38.3654C98.7782 37.7278 98.8779 36.9284 99.0144 35.9616C99.1509 34.9949 99.3188 33.8976 99.5235 32.6591L98.8097 32.0321C98.7362 31.7969 98.6103 31.4677 98.4266 31.0497C98.2429 30.6317 98.0067 30.1196 97.7128 29.5239M108.514 11.1825C108.404 11.1825 108.325 11.2504 108.283 11.3863C108.236 11.5221 108.168 11.7207 108.079 11.9715C108.063 12.1544 107.995 12.4 107.89 12.7083C107.78 13.0166 107.633 13.4085 107.449 13.884C107.302 14.2864 107.186 14.6365 107.108 14.9344C107.024 15.2322 106.982 15.4778 106.982 15.6555L107.176 15.8749L107.585 15.4674C107.601 15.1956 107.675 14.8926 107.806 14.5686C107.932 14.2394 108.105 13.8684 108.325 13.4503C108.509 13.0689 108.646 12.7397 108.735 12.4679C108.824 12.1962 108.871 11.9663 108.871 11.7834C108.871 11.5639 108.845 11.4124 108.787 11.3183C108.73 11.2295 108.64 11.1825 108.514 11.1825Z" fill="#16161D"></path>
    <path d="M109.328 28.2437C109.433 28.1131 109.553 27.9406 109.69 27.7264C109.832 27.5121 109.984 27.2718 110.157 27.0105C110.923 25.9811 111.668 25.0509 112.398 24.2305C113.128 23.4101 113.815 22.6786 114.471 22.0306C114.807 21.691 115.211 21.252 115.684 20.7138C116.156 20.1756 116.707 19.559 117.342 18.8587C117.993 18.5766 118.702 18.263 119.478 17.9025C119.972 17.8868 120.344 18.0279 120.596 18.3362C120.843 18.6445 120.985 19.0991 121.006 19.7001C121.027 20.2069 121.006 20.7608 120.948 21.3565C120.89 21.9522 120.801 22.5584 120.675 23.1854C120.528 23.6819 120.407 24.1626 120.318 24.6224C120.318 24.7479 120.355 24.8419 120.413 24.9046C120.47 24.9673 120.565 24.9935 120.691 24.9882C120.958 24.8524 121.473 24.3768 122.229 23.5617C122.984 22.7517 123.971 21.6178 125.194 20.1703C126.244 18.9267 127.168 17.9965 127.965 17.3747C128.763 16.7529 129.409 16.4289 129.902 16.4132C130.432 16.3923 130.826 16.5752 131.088 16.9567C131.345 17.3381 131.492 17.9077 131.524 18.6759C131.566 19.7837 131.524 20.8549 131.403 21.8895C131.277 22.9242 131.036 23.9222 130.668 24.8837C130.6 25.0666 130.563 25.2234 130.553 25.354C130.537 25.4846 130.532 25.5996 130.537 25.7093C130.542 25.8348 130.658 25.9497 130.878 26.049C131.02 25.9131 131.177 25.725 131.361 25.4846C131.545 25.239 131.755 24.9307 132.001 24.5597C132.406 24.1992 132.815 23.8334 133.219 23.4728C133.623 23.1123 134.064 22.7413 134.547 22.3598C135.04 21.9366 135.55 21.6126 136.074 21.3827C136.594 21.1527 136.862 21.043 137.371 21.0221C137.465 21.0221 137.754 21.1162 137.848 21.1684C137.943 21.2207 137.917 21.1893 138.011 21.2625C138.447 21.6073 138.494 21.9575 138.777 22.2449C139.066 22.5323 139.391 23.013 139.507 23.2272C140.278 24.6538 141.307 25.4637 141.89 26.1587L141.9 26.3207C141.989 26.3207 142.257 26.7022 142.247 26.6499C142.226 26.5402 142.614 27.2352 142.703 27.162C143.155 28.0347 144.12 28.9021 144.441 29.6755C143.806 30.2085 143.333 30.9191 142.835 31.2065C142.336 31.4887 141.045 32.168 140.662 32.1732C138.872 32.1889 138.578 30.9244 137.171 29.3515C135.77 27.7734 135.612 26.4252 134.899 26.4514C133.949 26.4879 132.427 27.9458 130.327 30.8251C128.228 33.7043 126.905 35.1518 126.359 35.1727C126.086 35.1831 125.719 35.1727 125.262 35.1309C125.11 35.0838 125 34.9741 124.921 34.8017C124.842 34.6292 124.795 34.4254 124.785 34.1903C124.774 33.9186 124.816 33.558 124.911 33.1034C125.005 32.654 125.131 32.1262 125.289 31.5201C125.498 30.7467 125.666 30.1301 125.792 29.6702C125.924 29.2104 125.992 28.8864 126.002 28.7035C126.05 28.4684 126.107 27.9981 126.181 27.3031C126.254 26.6081 126.349 25.6832 126.469 24.5336C126.459 24.335 126.401 24.1835 126.286 24.0738C126.17 23.9693 126.044 23.9222 125.897 23.9275C125.766 23.9327 125.63 23.9797 125.477 24.0685C125.325 24.1574 125.152 24.2932 124.958 24.4866C124.748 24.7322 124.512 24.9778 124.26 25.2234C124.003 25.469 123.593 25.8243 123.026 26.2841C122.418 27.0366 121.793 27.8048 121.158 28.5833C120.518 29.3619 119.867 30.151 119.205 30.94C118.161 32.2516 117.326 33.2288 116.702 33.8611C116.077 34.4934 115.673 34.8173 115.489 34.8226C114.938 34.8435 114.524 34.7964 114.23 34.6815C113.941 34.5613 113.794 34.3784 113.784 34.1223C113.757 33.5214 114.036 32.2621 114.613 30.3339C115.19 28.4057 115.463 27.0523 115.432 26.2737C115.432 26.1483 115.379 26.0438 115.295 25.9654C115.211 25.887 115.101 25.8504 114.975 25.8557C114.755 25.8661 114.497 25.9967 114.204 26.2528C113.91 26.5088 113.584 26.906 113.222 27.4494C112.975 27.7525 112.676 28.0974 112.325 28.4945C111.973 28.8917 111.543 29.3567 111.033 29.8845C110.986 30.0308 110.918 30.1771 110.829 30.3182C110.74 30.4593 110.645 30.5952 110.545 30.7258C110.461 30.4593 110.32 30.1249 110.12 29.733C109.921 29.341 109.664 28.8498 109.349 28.2594" fill="#16161D"></path>
    <path d="M143.47 25.8034L145.874 24.0319C145.957 23.9379 146.062 23.8072 146.183 23.6453C146.304 23.4833 146.435 23.2533 146.587 22.9555C146.703 22.7099 146.86 22.5009 147.06 22.3284C147.259 22.156 147.495 21.994 147.763 21.8529C147.899 21.6648 148.099 21.4244 148.356 21.137C148.613 20.8496 148.944 20.51 149.343 20.1233C149.537 20.0031 149.784 19.8307 150.083 19.606C150.382 19.3813 150.702 19.0834 151.049 18.7176C152.623 17.0664 154.019 15.8123 155.226 14.9658C156.434 14.1192 157.468 13.6698 158.323 13.6228C158.801 13.5967 159.152 13.6751 159.394 13.8632C159.63 14.0513 159.761 14.3282 159.782 14.6888C159.803 15.0703 159.751 15.4099 159.63 15.7078C159.509 16.0056 159.31 16.2617 159.026 16.4811C158.586 16.8312 158.113 17.2232 157.609 17.6516C157.336 18.0488 157.006 18.472 156.607 18.9214C156.213 19.3708 155.741 19.8202 155.2 20.2696C155.032 20.5152 154.885 20.7347 154.77 20.9228C154.681 21.0168 154.518 21.1893 154.276 21.4401C154.035 21.6909 153.71 21.9836 153.311 22.3128C153.148 22.7256 152.781 23.2638 152.203 23.9327C151.626 24.6015 150.849 25.4115 149.878 26.3521C149.757 26.4879 149.548 26.791 149.243 27.2613C148.939 27.7316 148.545 28.3534 148.052 29.132L148.256 29.3671C148.65 29.2156 149.059 28.9805 149.479 28.646C149.899 28.3168 150.361 27.8779 150.865 27.3397C151.453 26.744 151.936 26.258 152.308 25.8818C152.681 25.5055 152.949 25.2599 153.106 25.1397C153.227 25.0614 153.353 24.983 153.479 24.8994C153.599 24.821 153.741 24.7217 153.899 24.6015C154.686 23.5564 155.426 22.7726 156.134 22.2501C156.838 21.7275 157.499 21.4506 158.118 21.4192C158.502 21.3983 158.801 21.5342 159.021 21.8216C159.242 22.1142 159.383 22.5531 159.452 23.1541C159.467 24.0633 159.494 24.9359 159.541 25.772C159.557 26.3573 159.745 26.8694 160.108 27.3135C160.47 27.7577 160.926 27.9667 161.472 27.9354C161.635 27.9249 161.798 27.8727 161.945 27.7734C162.092 27.6741 162.249 27.5487 162.401 27.3919C162.522 27.2195 162.637 27.0627 162.748 26.9112C162.858 26.7596 162.973 26.6081 163.094 26.4566C163.162 26.4148 163.267 26.3468 163.398 26.2475C163.53 26.1483 163.656 26.0333 163.776 25.8974C164.06 26.4304 164.301 26.8955 164.501 27.2926C164.695 27.6898 164.847 28.0451 164.957 28.3482C164.558 28.7505 164.165 29.1686 163.776 29.6023C163.388 30.0308 162.973 30.4436 162.538 30.8303C162.013 31.2797 161.499 31.6193 161.005 31.8545C160.507 32.0896 160.003 32.2255 159.488 32.2516C158.302 32.3143 157.373 32.0269 156.696 31.3894C156.019 30.7519 155.589 29.7538 155.405 28.4004C155.394 28.2384 155.363 28.0712 155.31 27.8988C155.258 27.7263 155.148 27.5539 154.99 27.3815C154.906 27.4755 154.807 27.58 154.707 27.6845C154.602 27.7891 154.481 27.9301 154.345 28.1026C154.119 28.2959 153.83 28.5415 153.494 28.8289C153.153 29.1215 152.754 29.4717 152.303 29.8792C151.699 30.569 151.19 31.1334 150.776 31.5775C150.361 32.0165 150.067 32.3352 149.894 32.5286C149.548 32.8578 149.138 33.187 148.671 33.5266C148.204 33.8611 147.679 34.2112 147.096 34.5665C146.724 34.786 146.404 34.9636 146.136 35.0943C145.868 35.2301 145.669 35.2981 145.543 35.3033C144.666 35.3503 144.005 35.1726 143.564 34.7703C143.123 34.3679 142.877 33.72 142.824 32.8264C142.798 32.3352 142.877 31.8649 143.066 31.4051C143.249 30.9505 143.543 30.5011 143.937 30.0569C143.958 29.8165 143.968 29.6232 143.958 29.4821C143.958 29.388 143.926 29.2992 143.874 29.1999C143.821 29.1006 143.758 28.9909 143.68 28.8707C143.554 28.6251 143.417 28.343 143.265 28.0347C143.113 27.7263 142.945 27.3919 142.756 27.0366C142.824 26.9582 142.924 26.8119 143.05 26.5976C143.176 26.3834 143.323 26.1169 143.485 25.7929" fill="#16161D"></path>
    <path d="M162.296 27.5539C162.365 27.4285 162.459 27.2874 162.569 27.1306C162.685 26.9791 162.816 26.791 162.973 26.5715C163.147 26.4252 163.372 26.2162 163.651 25.9445C163.929 25.6727 164.238 25.354 164.59 24.9882C164.9 24.6224 165.283 24.173 165.734 23.6348C166.186 23.0966 166.731 22.4486 167.372 21.6805C167.65 21.3722 167.996 20.975 168.411 20.4943C168.826 20.0136 169.324 19.4335 169.891 18.7594C170.379 18.1585 170.899 17.7144 171.455 17.4217C172.011 17.1291 172.599 16.9828 173.224 16.9828C173.848 16.9828 174.31 17.1866 174.604 17.5942C174.898 18.0018 175.045 18.5975 175.045 19.3813C175.045 19.7993 174.898 20.5988 174.604 21.785C174.31 22.966 173.848 24.5336 173.224 26.4775C173.066 26.8432 172.919 27.1881 172.783 27.5173C172.678 27.7525 172.61 27.9615 172.573 28.1444C172.536 28.3273 172.521 28.4631 172.521 28.552C172.521 28.6617 172.584 28.7976 172.704 28.9596C172.794 28.9073 172.872 28.8342 172.951 28.7401C173.03 28.6513 173.119 28.5415 173.224 28.4161C173.366 28.1444 173.576 27.857 173.864 27.5539C174.148 27.2561 174.494 26.9216 174.893 26.5558C175.045 26.2475 175.25 25.9392 175.502 25.6414C175.754 25.3383 176.032 25.0614 176.347 24.8105C176.415 24.7374 176.51 24.6172 176.62 24.4552C176.735 24.2932 176.866 24.1156 177.024 23.9379C177.25 23.7027 177.517 23.4571 177.832 23.2011C178.142 22.945 178.509 22.6838 178.924 22.4068C179.391 22.1508 179.811 21.9522 180.184 21.8059C180.556 21.6596 180.882 21.5864 181.16 21.5864C181.695 21.5864 182.173 21.7223 182.593 21.994C183.007 22.2657 183.364 22.6942 183.658 23.2743C184.094 24.6799 184.55 25.6205 184.776 26.3259C184.965 26.8903 185.054 27 185.29 27.2717C185.527 27.5435 185.7 27.6845 185.999 27.6845C186.225 27.6845 186.256 27.5069 186.44 27.4181C186.624 27.3292 186.844 27.0888 187.001 26.9112L187.951 29.3149C187.657 29.5709 187.647 30.5638 187.332 30.8407C187.017 31.1125 186.718 31.379 186.419 31.635C186.02 32.0165 185.647 32.283 185.301 32.4397C184.954 32.5913 184.608 32.6696 184.256 32.6696C183.858 32.6696 183.474 32.5808 183.112 32.3979C182.745 32.215 182.435 31.9433 182.173 31.5775C182.036 31.4312 181.863 31.1647 181.653 30.7728C181.443 30.3809 181.202 29.8949 180.924 29.3149C180.698 29.0745 180.441 28.7662 180.157 28.3743C179.869 27.9824 179.538 27.5226 179.155 26.9948L178.919 26.9112C178.588 27.0209 178.263 27.1829 177.942 27.4024C177.622 27.6218 177.276 27.904 176.914 28.2489C176.132 28.9752 175.57 29.4299 175.224 29.6127C174.877 29.7956 174.646 30.0047 174.52 30.2398C174.279 30.6787 173.859 31.2379 173.271 31.9329C172.683 32.6226 171.943 33.443 171.062 34.3888C170.836 34.624 170.61 34.8591 170.384 35.0838C170.159 35.3137 169.933 35.5332 169.707 35.7527C169.482 35.9512 169.224 36.0923 168.941 36.1759C168.652 36.2595 168.337 36.3013 167.991 36.3013C167.298 36.3013 166.92 36.0505 166.857 35.5489C166.794 35.0472 166.742 34.5456 166.689 34.0335C166.952 33.2706 167.246 32.3143 167.576 31.1647C167.907 30.0203 168.285 28.6826 168.715 27.1516C168.715 27.0627 168.747 26.9373 168.805 26.7858C168.868 26.629 168.936 26.4252 169.025 26.1692C169.109 25.934 169.172 25.7302 169.204 25.5578C169.24 25.3853 169.256 25.2338 169.256 25.1084C169.256 24.983 169.214 24.8837 169.125 24.8105C169.041 24.7374 168.899 24.7008 168.71 24.7008C168.537 24.7008 168.306 24.8105 168.017 25.03C167.729 25.2495 167.387 25.5944 166.989 26.0647C166.506 26.6081 166.112 27.0366 165.818 27.3501C165.524 27.6584 165.325 27.8413 165.22 27.8936C165.047 28.019 164.842 28.2019 164.611 28.437C164.375 28.6722 164.112 28.9387 163.818 29.2261C163.782 29.2992 163.734 29.409 163.661 29.5553C163.593 29.7016 163.483 29.8636 163.325 30.0465C163.257 29.7747 163.136 29.4351 162.963 29.0379C162.79 28.6356 162.564 28.1392 162.286 27.5382" fill="#16161D"></path>
    <path d="M186.366 27.5852C186.434 27.4546 186.529 27.3083 186.644 27.1463C186.76 26.9843 186.896 26.7962 187.054 26.5663C187.227 26.4147 187.458 26.2005 187.741 25.9183C188.025 25.6361 188.334 25.3069 188.691 24.9307C189.006 24.5545 189.395 24.0894 189.851 23.5303C190.308 22.9764 190.859 22.3023 191.51 21.508C191.793 21.1893 192.145 20.7765 192.565 20.28C192.985 19.7836 193.483 19.1827 194.066 18.4877C194.559 17.8659 195.084 17.406 195.646 17.103C196.207 16.7999 196.806 16.6536 197.435 16.6536C198.065 16.6536 198.532 16.8626 198.832 17.2911C199.131 17.7143 199.278 18.3309 199.278 19.1409C199.278 19.5746 199.131 20.4055 198.832 21.6282C198.532 22.851 198.065 24.4709 197.435 26.4879C197.278 26.8641 197.126 27.2247 196.989 27.5643C196.884 27.8099 196.811 28.0242 196.779 28.2123C196.743 28.4004 196.727 28.5415 196.727 28.6356C196.727 28.7453 196.79 28.8864 196.911 29.0588C197 29.0013 197.084 28.9282 197.163 28.8341C197.241 28.7401 197.33 28.6251 197.435 28.4945C197.577 28.2123 197.792 27.9145 198.081 27.6061C198.37 27.2926 198.721 26.953 199.12 26.5767C199.278 26.258 199.488 25.9392 199.74 25.6309C199.992 25.3174 200.28 25.03 200.595 24.7687C200.663 24.6956 200.758 24.5702 200.873 24.4029C200.989 24.2357 201.125 24.0528 201.283 23.8647C201.514 23.6191 201.781 23.3631 202.101 23.1018C202.416 22.8405 202.789 22.5636 203.209 22.2814C203.681 22.0201 204.112 21.8111 204.484 21.6596C204.862 21.508 205.193 21.4349 205.471 21.4349C206.017 21.4349 206.5 21.576 206.92 21.8581C207.34 22.1403 207.702 22.5845 208.001 23.1854C208.352 24.3559 208.688 25.4376 209.003 26.4356C209.197 27.0209 209.407 27.4546 209.649 27.7368C209.885 28.019 210.153 28.16 210.452 28.16C210.678 28.16 210.888 28.113 211.071 28.019C211.255 27.9249 211.428 27.7838 211.586 27.5957C211.586 27.5957 213.318 25.9497 213.89 27.1202C214.462 28.2855 212.641 30.198 212.641 30.198C212.341 30.4593 212.037 30.7362 211.717 31.0184C211.402 31.3006 211.092 31.5723 210.793 31.8388C210.389 32.2359 210.011 32.5129 209.659 32.6696C209.308 32.8316 208.956 32.91 208.604 32.91C208.2 32.91 207.812 32.8159 207.444 32.6278C207.072 32.4397 206.757 32.1575 206.494 31.7813C206.353 31.6298 206.18 31.3528 205.97 30.9452C205.76 30.5429 205.513 30.036 205.235 29.4351C205.004 29.1895 204.747 28.8655 204.458 28.4579C204.169 28.0555 203.828 27.58 203.445 27.0313L203.209 26.9477C202.878 27.0627 202.548 27.2299 202.222 27.4546C201.897 27.6793 201.55 27.9719 201.183 28.3325C200.396 29.085 199.824 29.5552 199.472 29.7434C199.12 29.9315 198.884 30.151 198.763 30.3913C198.517 30.8407 198.097 31.426 197.498 32.1419C196.9 32.8577 196.155 33.7043 195.263 34.6867C195.037 34.9323 194.806 35.1726 194.58 35.4078C194.349 35.6429 194.124 35.8728 193.898 36.1028C193.667 36.3118 193.41 36.4581 193.121 36.5417C192.832 36.6253 192.512 36.6671 192.161 36.6671C191.457 36.6671 191.074 36.4058 191.016 35.8885C190.953 35.3712 190.896 34.8486 190.843 34.3209C191.106 33.5318 191.405 32.539 191.741 31.3528C192.071 30.1666 192.46 28.7819 192.89 27.1986C192.89 27.1045 192.922 26.9791 192.979 26.8171C193.042 26.6551 193.116 26.4461 193.2 26.1796C193.289 25.934 193.347 25.725 193.384 25.5421C193.42 25.3644 193.436 25.2077 193.436 25.077C193.436 24.9464 193.394 24.8419 193.305 24.7687C193.216 24.6956 193.074 24.6538 192.885 24.6538C192.712 24.6538 192.476 24.7687 192.187 24.9934C191.898 25.2181 191.552 25.5787 191.148 26.0646C190.654 26.629 190.261 27.0731 189.961 27.3919C189.662 27.7107 189.458 27.8988 189.353 27.9563C189.174 28.0869 189.059 28.3534 188.817 28.599C188.581 28.8446 188.523 29.1529 188.224 29.4507C188.187 29.5239 188.025 29.7016 187.951 29.8531C187.878 30.0046 187.589 30.3704 187.432 30.5585C187.363 30.2764 187.232 29.5552 187.054 29.1424C186.875 28.7244 186.65 28.2071 186.366 27.5852Z" fill="#16161D"></path>
    <path d="M13.8458 17.1761H25.8335C26.7468 17.1761 27.4921 17.9182 27.4921 18.8274V31.055C27.4921 31.9642 26.7468 32.7062 25.8335 32.7062H13.8458C12.9326 32.7062 12.1873 31.9642 12.1873 31.055V18.8274C12.1873 17.9182 12.9326 17.1761 13.8458 17.1761Z" fill="#16161D"></path>
    <path d="M1.65855 9.50513H9.25848C10.1717 9.50513 10.917 10.2419 10.917 11.1564V39.2067C10.917 40.1159 10.1717 40.8579 9.25848 40.8579H1.65855C0.745297 40.8579 0 40.1159 0 39.2067V11.1564C0 10.2471 0.745297 9.50513 1.65855 9.50513Z" fill="#16161D"></path>
    <path d="M30.3209 9.50513H37.9208C38.8341 9.50513 39.5794 10.2419 39.5794 11.1564V39.2067C39.5794 40.1159 38.8341 40.8579 37.9208 40.8579H30.3209C29.4077 40.8579 28.6624 40.1159 28.6624 39.2067V11.1564C28.6624 10.2471 29.4077 9.50513 30.3209 9.50513Z" fill="#16161D"></path>
  </g>
  <defs>
    <clipPath id="clip0_538_3397">
      <rect width="214" height="54" fill="white"></rect>
    </clipPath>
  </defs>
</svg>
