<?xml version="1.0" encoding="UTF-8"?>
<svg xmlns="http://www.w3.org/2000/svg" width="204" height="62" viewBox="0 0 204 62" fill="none">
  <g clip-path="url(#clip0_538_3382)">
    <path d="M27.2839 15.4049C25.5423 16.9213 23.6983 15.9563 23.5276 13.8885C23.2886 10.6145 22.8446 4.16978 22.6056 0.895735C22.5715 0.482172 22.8788 0.103072 23.3227 0.0686087C23.6301 0.0341451 24.2106 -0.000318471 24.5179 -0.000318471C24.9277 -0.0347821 25.3033 0.27539 25.3375 0.723417C25.5423 3.75621 26.1911 12.6823 26.1911 12.6823C26.1911 12.6823 32.167 7.51274 34.1818 5.7551C34.4891 5.47939 35.0013 5.51386 35.2745 5.82403C36.0258 6.78901 35.2745 5.82403 36.0258 6.78901C36.3331 7.16811 36.2648 7.61613 35.9575 7.89184C33.772 9.78734 29.4352 13.5094 27.2839 15.4049ZM29.1279 17.3004C27.6254 19.058 28.5815 20.9191 30.6304 21.0914C33.8744 21.3326 40.1918 21.6773 43.4359 21.9185C43.8456 21.953 44.2213 21.6428 44.2554 21.1948C44.2896 20.8846 44.3579 20.2298 44.392 19.9541C44.4262 19.5405 44.0847 19.1959 43.6408 19.1614C40.6357 18.9547 31.8256 18.4032 31.8256 18.4032C31.8256 18.4032 36.9819 12.3376 38.7235 10.3388C38.9966 10.0286 38.9625 9.51163 38.6552 9.23592C37.699 8.47772 38.6552 9.23592 37.699 8.47773C37.3234 8.16755 36.8795 8.23648 36.6063 8.54665C34.694 10.7179 31.006 15.0947 29.1279 17.3004ZM35.9233 36.7723C36.2307 37.048 36.299 37.4961 35.9916 37.8752C35.2404 38.8401 35.9916 37.8752 35.2404 38.8401C35.0013 39.1503 34.455 39.1848 34.1476 38.9091C32.1329 37.1514 26.0887 32.0853 26.0887 32.0853C26.0887 32.0853 25.5423 40.9424 25.3375 43.9408C25.3033 44.3888 24.9277 44.699 24.5179 44.6645C24.2106 44.63 23.6301 44.5956 23.3227 44.5956C22.9129 44.5611 22.5715 44.182 22.6056 43.7684C22.8446 40.4944 23.2886 34.0842 23.5276 30.8101C23.6642 28.7423 25.5423 27.7084 27.2839 29.2248C29.3669 31.0514 33.6354 34.7734 35.9233 36.7723ZM36.538 36.152C36.8112 36.4622 37.2551 36.5311 37.6307 36.2209C38.5869 35.4627 37.6307 36.2209 38.5869 35.4627C38.8942 35.2215 38.9283 34.6701 38.6552 34.3599C36.9136 32.3265 31.8256 26.3988 31.8256 26.3988C31.8256 26.3988 40.6357 25.744 43.6408 25.5372C44.0847 25.5027 44.392 25.1236 44.3579 24.7101C44.3237 24.3999 44.2896 23.814 44.2896 23.5038C44.2554 23.0903 43.8798 22.7457 43.47 22.7801C40.226 23.0214 33.8403 23.4349 30.5962 23.6417C28.5474 23.7796 27.5912 25.6751 29.0937 27.4327C30.9719 29.6039 34.6598 33.9808 36.538 36.152ZM8.46835 7.89184C8.16102 7.61613 8.09273 7.16811 8.40006 6.78901C9.15131 5.82403 8.40006 6.78901 9.15131 5.82403C9.39035 5.51386 9.93672 5.47939 10.244 5.7551C12.2588 7.51274 18.2688 12.6134 18.2688 12.6134C18.2688 12.6134 18.8152 3.72175 19.0201 0.723417C19.0542 0.27539 19.464 -0.0347821 19.8396 -0.000318471C20.147 0.0341451 20.7275 0.0686087 21.0348 0.0686087C21.4446 0.103072 21.7861 0.482172 21.7519 0.895735C21.5129 4.16978 21.1373 10.58 20.8982 13.854C20.7616 15.9219 18.8835 16.8868 17.1419 15.3704C14.9906 13.4405 10.6538 9.8218 8.46835 7.89184ZM7.85369 8.51219C7.58051 8.20202 7.13658 8.13309 6.76095 8.44326C5.80481 9.20146 6.76096 8.44326 5.80481 9.20146C5.49748 9.44271 5.46333 9.99412 5.73652 10.3043C7.47806 12.3376 12.6003 18.2998 12.6003 18.2998C12.6003 18.2998 3.72179 18.9202 0.716765 19.127C0.272841 19.1614 -0.0344904 19.5405 -0.000342385 19.9541C0.0338056 20.2643 0.0679535 20.8502 0.0679535 21.1603C0.102102 21.5739 0.477729 21.9185 0.887505 21.8841C4.13156 21.6428 10.5514 21.2982 13.7954 21.0569C15.9126 20.9191 16.5956 18.7823 15.2979 17.2659C13.454 15.0947 9.73183 10.7179 7.85369 8.51219ZM17.1078 29.2937C18.8493 27.7773 20.6933 28.7423 20.8641 30.8101C21.1031 34.0842 21.547 40.4944 21.7861 43.7684C21.8202 44.182 21.5129 44.5611 21.069 44.5956C20.7616 44.63 20.1811 44.6645 19.8738 44.6645C19.464 44.699 19.0884 44.3888 19.0542 43.9408C18.8493 40.908 18.2347 31.9819 18.2347 31.9819C18.2347 31.9819 12.2588 37.0825 10.244 38.8401C9.93672 39.1159 9.4245 39.0814 9.15131 38.7712C8.40006 37.8062 9.15131 38.7712 8.40006 37.8062C8.09273 37.4271 8.16102 36.9791 8.46835 36.7034C10.6197 34.8424 14.9565 31.1892 17.1078 29.2937ZM15.3321 27.5361C16.8346 25.7784 15.8785 23.9174 13.8296 23.7451C10.5855 23.5039 4.16571 22.9869 0.921653 22.7457C0.511877 22.7112 0.136249 23.0214 0.102102 23.4694C0.0679536 23.7796 0.0338056 24.3654 0.0338056 24.6756C-0.000342384 25.0892 0.306989 25.4683 0.750913 25.5027C3.75593 25.7095 12.6344 26.2609 12.6344 26.2609C12.6344 26.2609 7.51221 32.3265 5.77066 34.3254C5.49748 34.6356 5.53163 35.1525 5.83896 35.4283C6.7951 36.1865 5.83896 35.4283 6.7951 36.1865C7.17073 36.4966 7.61465 36.4277 7.88784 36.1175C9.73183 33.9463 13.454 29.7418 15.3321 27.5361Z" fill="#16161D"></path>
    <path d="M63.2762 44.7682C63.2762 48.3869 60.2712 51.4886 56.6857 51.4886C53.4758 51.4886 50.1293 48.9728 50.1293 44.7682C50.1293 40.9428 53.1343 38.1167 56.6857 38.1167C60.1688 38.1512 63.2762 41.0117 63.2762 44.7682ZM65.9739 44.7682C65.9739 39.5298 61.8079 35.3252 56.6857 35.3252C53.8514 35.3252 51.3244 36.6003 49.9244 38.1167C49.9244 38.1167 49.4805 36.9105 49.3439 36.4625C49.2073 36.0489 48.7975 35.7043 48.3877 35.7043C47.8072 35.7043 47.3633 36.1523 47.3633 36.7727V61.2074C47.3633 61.6554 47.7048 62 48.1487 62H49.378C49.8219 62 50.1634 61.6554 50.1634 61.2074V51.4886C51.8025 53.2118 54.2612 54.2457 56.7198 54.2457C61.8079 54.2802 65.9739 50.0067 65.9739 44.7682Z" fill="#16161D"></path>
    <path d="M144.719 35.3596H144.002C143.934 35.3596 143.865 35.3596 143.797 35.3596C141.646 35.4975 139.563 36.7382 138.88 38.0478C138.88 38.0478 138.675 36.7382 138.572 36.3935C138.436 35.9455 138.026 35.7043 137.616 35.7043C137.07 35.7043 136.558 36.1178 136.558 36.7726V53.0739C136.558 53.5219 136.899 53.8666 137.343 53.8666H138.538C138.982 53.8666 139.324 53.5219 139.324 53.0739V43.0105C139.324 40.2879 141.441 38.2201 144.002 38.1167H144.036H144.753C145.197 38.1167 145.539 37.7721 145.539 37.324V36.0834C145.436 35.7043 145.095 35.3596 144.719 35.3596Z" fill="#16161D"></path>
    <path d="M95.6827 54.2112C92.5752 54.2112 90.4922 52.3846 90.0824 52.0745L90.0483 52.04C89.5019 51.592 89.4678 51.075 89.8434 50.5581L90.219 50.0756C90.3897 49.8688 90.5946 49.6275 90.9361 49.5931C91.1751 49.5586 91.4142 49.662 91.6532 49.8688C92.1313 50.2823 93.8045 51.592 95.6485 51.592C97.3559 51.592 98.5511 50.5925 98.5511 49.1795C98.5511 47.8354 97.4925 46.9394 94.4534 45.6642C91.824 44.5269 89.7751 43.3896 89.7751 40.1501C89.7751 38.1856 91.3117 35.2562 95.5802 35.2562C98.0389 35.2562 99.8487 36.4624 100.088 36.6003C100.259 36.7037 100.463 36.9105 100.532 37.1862C100.566 37.393 100.6 37.7376 100.395 38.0822L100.156 38.5303C99.9512 38.8404 99.5414 39.3229 98.6536 38.8404C97.595 38.2201 96.8096 37.8755 95.5461 37.8755C93.1557 37.8755 92.5411 39.3229 92.5411 40.1845C92.5411 41.6665 93.5655 42.3213 95.6485 43.1484C98.8243 44.458 101.488 45.7676 101.488 49.1451C101.556 51.9711 98.9267 54.2112 95.6827 54.2112Z" fill="#16161D"></path>
    <path d="M77.8232 51.4542C74.2035 51.4542 71.2327 48.4903 71.2327 44.7683C71.2327 41.0807 74.1694 38.0823 77.8232 38.0823C81.4088 38.0823 84.3113 41.0462 84.3455 44.7683C84.3455 48.4903 81.4429 51.4542 77.8232 51.4542ZM77.7891 35.2908C72.6669 35.2908 68.4667 39.5298 68.4667 44.7683C68.4667 50.0067 72.6327 54.2457 77.7891 54.2457C82.9113 54.2457 87.1115 50.0067 87.1115 44.7683C87.1115 39.5298 82.9454 35.2908 77.7891 35.2908Z" fill="#16161D"></path>
    <path d="M113.166 38.1167H109.239V53.1084C109.239 53.522 108.898 53.8666 108.488 53.8666H107.293C106.883 53.8666 106.542 53.522 106.542 53.1084V38.1167H105.039C104.493 38.1167 104.015 37.6687 104.015 37.1173C104.015 36.6693 104.254 36.2902 104.698 36.1179C105.176 35.9455 106.508 35.3252 106.508 35.3252V28.3635C106.508 27.95 106.883 27.6053 107.293 27.6053H108.488C108.898 27.6053 109.205 27.95 109.205 28.3635V35.3252H113.166C113.576 35.3252 113.918 35.6698 113.918 36.0834V37.2896C113.918 37.7721 113.61 38.1167 113.166 38.1167Z" fill="#16161D"></path>
    <path d="M154.451 40.4258L147.212 28.6737C146.905 28.1912 147.212 27.6398 147.861 27.6398H149.875C150.149 27.6398 150.388 27.7776 150.524 27.9844L156.261 37.9099H156.295L162.1 27.9844C162.203 27.8121 162.442 27.6398 162.749 27.6398H164.764C165.413 27.6398 165.686 28.1912 165.413 28.6737L158.173 40.4258L165.686 52.8327C165.993 53.3496 165.686 53.8666 165.037 53.8666H163.33C163.022 53.8666 162.783 53.6942 162.681 53.5219L156.329 42.9071H156.295L149.91 53.5564C149.807 53.7287 149.568 53.901 149.295 53.901H147.588C146.905 53.901 146.631 53.3496 146.905 52.8671L154.451 40.4258Z" fill="#16161D"></path>
    <path d="M175.896 40.4258L168.657 28.6737C168.35 28.1912 168.657 27.6398 169.306 27.6398H171.32C171.594 27.6398 171.833 27.7776 171.969 27.9844L177.706 37.9099H177.74L183.545 27.9844C183.648 27.8121 183.887 27.6398 184.16 27.6398H186.175C186.789 27.6398 187.097 28.1912 186.789 28.6737L179.55 40.4258L187.063 52.8327C187.37 53.3496 187.063 53.8666 186.448 53.8666H184.741C184.433 53.8666 184.194 53.6943 184.092 53.5219L177.74 42.9071H177.706L171.423 53.5219C171.32 53.6943 171.081 53.8666 170.774 53.8666H169.067C168.384 53.8666 168.111 53.3151 168.384 52.8327L175.896 40.4258Z" fill="#16161D"></path>
    <path d="M189.692 28.3291C189.692 27.95 189.999 27.6053 190.409 27.6053H191.843C192.219 27.6053 192.56 27.95 192.56 28.3291V51.3508H203.283C203.693 51.3508 204 51.6954 204 52.0745V53.1773C204 53.5564 203.693 53.9011 203.283 53.9011H190.409C189.999 53.9011 189.692 53.5564 189.692 53.1773V28.3291Z" fill="#16161D"></path>
    <path d="M118.391 42.4591C119.313 39.9088 121.772 38.0822 124.606 38.0822C127.474 38.0822 129.899 39.9088 130.821 42.4591H118.391ZM133.997 44.2168C133.724 39.1851 129.558 35.2218 124.504 35.2907C119.484 35.3596 115.352 39.4608 115.215 44.5614C115.079 49.9032 119.347 54.2801 124.606 54.2801C127.918 54.2801 130.855 52.5569 132.528 49.9032C132.733 49.5586 132.665 49.1106 132.358 48.8693L131.333 48.0422C130.992 47.7665 130.514 47.8699 130.275 48.2145C129.114 50.1445 126.996 51.4541 124.606 51.4541C121.089 51.4541 118.22 48.697 117.981 45.2507H133.177C133.621 45.2507 133.997 44.8716 133.997 44.4235C133.997 44.3201 133.997 44.2512 133.997 44.2168Z" fill="#16161D"></path>
  </g>
  <defs>
    <clipPath id="clip0_538_3382">
      <rect width="204" height="62" fill="white"></rect>
    </clipPath>
  </defs>
</svg>
