<?xml version="1.0" encoding="UTF-8"?>
<svg xmlns="http://www.w3.org/2000/svg" width="238" height="61" viewBox="0 0 238 61" fill="none">
  <g clip-path="url(#clip0_538_3314)">
    <path d="M27.368 15.1821C25.6233 16.6732 23.7417 15.7243 23.6049 13.691C23.3654 10.4715 22.9207 4.10044 22.6812 0.880993C22.647 0.474326 22.9549 0.101549 23.3996 0.0676599C23.7075 0.0676599 24.3233 0.033771 24.6312 -0.000117874C25.0417 -0.0340068 25.418 0.270993 25.4523 0.711549C25.6575 3.69377 26.3075 12.5049 26.3075 12.5049C26.3075 12.5049 32.3285 7.42155 34.3469 5.69321C34.6548 5.4221 35.1679 5.45599 35.4416 5.76099C36.1942 6.70988 35.4416 5.76099 36.1942 6.70988C36.5021 7.08266 36.4337 7.52322 36.1258 7.79433C33.9022 9.65822 29.5575 13.3182 27.368 15.1821ZM29.2154 17.046C27.7101 18.7743 28.668 20.6382 30.7206 20.7738C33.9706 21.011 40.3337 21.3499 43.5836 21.5871C43.9942 21.621 44.3705 21.316 44.4047 20.8754C44.4389 20.5704 44.5073 19.9265 44.5415 19.6554C44.5757 19.2488 44.2336 18.9099 43.7889 18.876C40.7784 18.6727 31.918 18.1304 31.918 18.1304C31.918 18.1304 37.1179 12.166 38.8626 10.1665C39.1363 9.86155 39.1021 9.35322 38.7942 9.0821C37.8363 8.33655 38.7942 9.0821 37.8363 8.33655C37.46 8.03155 37.0153 8.09933 36.7416 8.40433C34.8258 10.5732 31.1311 14.911 29.2154 17.046ZM36.0574 36.261C36.3653 36.5321 36.4337 36.9727 36.1258 37.3454C35.3732 38.2943 36.1258 37.3454 35.3732 38.2943C35.1337 38.5993 34.5864 38.6332 34.2785 38.3621C32.2601 36.6338 26.1707 31.6521 26.1707 31.6521C26.1707 31.6521 25.6233 40.3954 25.418 43.3438C25.3838 43.7843 25.0075 44.0893 24.597 44.0554C24.2891 44.0215 23.6733 43.9877 23.3996 43.9877C22.9891 43.9538 22.647 43.581 22.6812 43.1743C22.9207 39.9549 23.3654 33.6177 23.6049 30.3982C23.7417 28.3649 25.6575 27.3482 27.4022 28.8393C29.4891 30.6015 33.7653 34.2954 36.0574 36.261ZM36.6732 35.651C36.9469 35.956 37.3916 36.0238 37.7679 35.7188C38.7258 34.9732 37.7679 35.7188 38.7258 34.9732C39.0337 34.736 39.0679 34.1938 38.7942 33.8888C37.0495 31.8893 31.9522 26.0265 31.9522 26.0265C31.9522 26.0265 40.8126 25.3827 43.8231 25.1454C44.2678 25.1115 44.5757 24.7388 44.5415 24.3321C44.5073 24.0271 44.4731 23.4171 44.4731 23.146C44.4389 22.7393 44.0626 22.4004 43.6521 22.4343C40.4021 22.6715 33.9706 23.0782 30.7206 23.3154C28.668 23.451 27.7101 25.3149 29.2154 27.0432C31.0969 29.2121 34.7916 33.4821 36.6732 35.651ZM8.48402 7.79433C8.17613 7.52322 8.10771 7.08266 8.4156 6.70988C9.16823 5.76099 8.4156 6.70988 9.16823 5.76099C9.4077 5.45599 9.95506 5.4221 10.263 5.69321C12.2813 7.42155 18.3365 12.471 18.3365 12.471C18.3365 12.471 18.9181 3.69377 19.1234 0.711549C19.1576 0.270993 19.5339 -0.0340068 19.9444 -0.000117874C20.2523 0.033771 20.8681 0.0676599 21.1418 0.0676599C21.5523 0.101549 21.8944 0.474326 21.8602 0.880993C21.6207 4.10044 21.2444 10.4038 21.0049 13.6571C20.8681 15.6904 18.9865 16.6393 17.2418 15.1482C15.0524 13.2843 10.6735 9.6921 8.48402 7.79433ZM7.86824 8.40433C7.59456 8.09933 7.14983 8.03155 6.77352 8.33655C5.81563 9.0821 6.77352 8.33655 5.81563 9.0821C5.50774 9.31933 5.47353 9.86155 5.74721 10.1665C7.49193 12.166 12.6577 18.0627 12.6577 18.0627C12.6577 18.0627 3.72881 18.6727 0.71832 18.876C0.273588 18.9099 -0.0343037 19.2827 -9.35327e-05 19.6893C0.0341166 19.9943 0.0683268 20.6043 0.0683268 20.8754C0.102537 21.2821 0.478848 21.621 0.88937 21.5871C4.13933 21.3499 10.6051 21.011 13.855 20.7738C16.0103 20.6382 16.6602 18.5371 15.3603 17.046C13.4787 14.911 9.7498 10.5732 7.86824 8.40433ZM17.1734 28.9071C18.9181 27.416 20.7997 28.3649 20.9365 30.3982C21.176 33.6177 21.6207 39.9549 21.8602 43.1743C21.8944 43.581 21.5865 43.9538 21.1418 43.9877C20.8339 44.0216 20.2181 44.0554 19.9444 44.0554C19.5339 44.0893 19.1576 43.7843 19.1234 43.3438C18.9181 40.3615 18.3023 31.5504 18.3023 31.5504C18.3023 31.5504 12.2814 36.5999 10.2972 38.3282C9.98927 38.5993 9.47612 38.5654 9.20244 38.2604C8.44981 37.3116 9.20244 38.2604 8.44981 37.3115C8.14192 36.9388 8.21034 36.4982 8.51823 36.2271C10.6393 34.3632 14.984 30.771 17.1734 28.9071ZM15.3945 27.1788C16.8997 25.4504 15.9418 23.5865 13.8892 23.451C10.6393 23.2138 4.17354 22.7054 0.92358 22.4682C0.513059 22.4343 0.136747 22.7393 0.102537 23.1799C0.0683268 23.4849 0.0341166 24.061 -9.35327e-05 24.366C-0.0343037 24.7727 0.273588 25.1454 0.71832 25.1793C3.72881 25.3827 12.6577 25.9249 12.6577 25.9249C12.6577 25.9249 7.49193 31.8893 5.713 33.8888C5.43932 34.1938 5.47353 34.7021 5.78142 34.9732C6.73931 35.7188 5.78142 34.9732 6.73931 35.7188C7.11562 36.0238 7.56035 35.956 7.83403 35.651C9.7498 33.4821 13.4787 29.3477 15.3945 27.1788Z" fill="#16161D"></path>
    <path d="M68.8309 34.7023C63.631 34.7023 59.3889 38.9045 59.3889 44.0556C59.3889 49.2067 63.631 53.4089 68.8309 53.4089C74.0309 53.4089 78.2729 49.2067 78.2729 44.0556C78.2729 38.9045 74.0993 34.7023 68.8309 34.7023ZM68.8651 50.6639C65.1704 50.6639 62.1941 47.7156 62.1941 44.0556C62.1941 40.3956 65.1704 37.4473 68.8651 37.4473C72.5256 37.4473 75.4335 40.3956 75.4677 44.0556C75.4677 47.7156 72.5598 50.6639 68.8651 50.6639Z" fill="#16161D"></path>
    <path d="M98.6621 34.7023C93.4622 34.7023 89.2201 38.9045 89.2201 44.0556C89.2201 49.2067 93.4622 53.4089 98.6621 53.4089C103.862 53.4089 108.104 49.2067 108.104 44.0556C108.104 38.9045 103.896 34.7023 98.6621 34.7023ZM98.6963 50.6639C95.0016 50.6639 92.0253 47.7156 92.0253 44.0556C92.0253 40.3956 95.0016 37.4473 98.6963 37.4473C102.357 37.4473 105.265 40.3956 105.299 44.0556C105.299 47.7156 102.391 50.6639 98.6963 50.6639Z" fill="#16161D"></path>
    <path d="M29.2155 17.0462C27.7103 18.7406 28.6682 20.6045 30.6866 20.7401C33.9023 20.9773 40.368 21.4178 43.5838 21.6551C43.9943 21.6889 44.3706 21.3839 44.4048 20.9434C44.4391 20.6384 44.4733 20.0623 44.4733 19.7573C44.5075 19.3506 44.1996 18.9778 43.7548 18.9439C40.7786 18.7406 31.8497 18.1306 31.8497 18.1306C31.8497 18.1306 37.0497 12.2001 38.7944 10.2345C39.0681 9.9295 39.0338 9.42116 38.726 9.18394C37.8023 8.43839 38.726 9.18394 37.8023 8.43838C37.426 8.13338 36.9812 8.20116 36.7418 8.50616C34.8602 10.6412 31.0971 14.9112 29.2155 17.0462Z" fill="#16161D"></path>
    <path d="M36.7418 35.6173C37.0155 35.9223 37.426 35.9901 37.8023 35.6851C38.726 34.9395 37.8023 35.6851 38.726 34.9395C39.0338 34.7023 39.0681 34.1601 38.7944 33.889C37.0497 31.9234 31.8497 25.9928 31.8497 25.9928C31.8497 25.9928 40.7786 25.3828 43.7549 25.1795C44.1996 25.1456 44.4733 24.7728 44.4733 24.3662C44.4391 24.0612 44.4048 23.4851 44.4048 23.1801C44.3706 22.7734 43.9943 22.4345 43.5838 22.4684C40.368 22.7056 33.9023 23.1462 30.6866 23.3834C28.6682 23.519 27.7103 25.349 29.2155 27.0773C31.0971 29.1784 34.8602 33.4823 36.7418 35.6173Z" fill="#16161D"></path>
    <path d="M192.808 53.3411C189.661 53.3411 187.54 51.5789 187.13 51.24H187.095C186.548 50.7994 186.514 50.2911 186.924 49.7828L187.301 49.3083C187.472 49.105 187.711 48.8678 188.019 48.8339C188.258 48.8 188.498 48.9017 188.772 49.105C189.251 49.5117 190.927 50.7994 192.843 50.7994C194.553 50.7994 195.785 49.8167 195.785 48.4272C195.785 47.1056 194.724 46.2244 191.611 44.9367C188.908 43.8183 186.856 42.7 186.856 39.5144C186.856 37.5489 188.43 34.6683 192.74 34.6683C195.237 34.6683 197.085 35.8206 197.324 35.99C197.495 36.0917 197.7 36.2611 197.769 36.5661C197.837 36.7694 197.837 37.0744 197.632 37.4811L197.393 37.8878C197.222 38.1928 196.777 38.6672 195.887 38.1928C194.827 37.5828 194.04 37.2778 192.74 37.2778C190.345 37.2778 189.695 38.7011 189.695 39.5483C189.695 40.9717 190.722 41.6494 192.843 42.4967C196.093 43.7844 198.761 45.1061 198.761 48.3933C198.761 51.1044 196.093 53.3411 192.808 53.3411Z" fill="#16161D"></path>
    <path d="M58.5336 24.7728C56.5836 24.7728 54.5994 26.8062 54.5994 29.4495C54.5994 30.7034 54.5994 34.6684 54.5994 34.6684H58.6705C59.081 34.6684 59.4573 35.0073 59.4573 35.4478V36.6678C59.4573 37.0745 59.1152 37.4473 58.6705 37.4473H54.5994V60.2206C54.5994 60.6273 54.2573 61.0001 53.8126 61.0001H52.581C52.1705 61.0001 51.7942 60.6612 51.7942 60.2206V37.4473H50.2548C49.7074 37.4473 49.2969 36.9389 49.2969 36.4645C49.2969 36.0578 49.5363 35.6512 49.9811 35.4817C50.46 35.3123 51.7942 34.7023 51.7942 34.7023C51.7942 34.7023 51.7942 30.7712 51.7942 29.4834C51.7942 25.1795 55.2494 22.0278 58.3626 22.0278H58.602C59.0126 22.0278 59.3889 22.3667 59.3889 22.8073V24.0273C59.3889 24.4339 59.0468 24.8067 58.602 24.8067H58.5336V24.7728Z" fill="#16161D"></path>
    <path d="M126.064 52.1889C126.304 52.5278 126.064 52.9684 125.654 52.9684H123.499C123.259 52.9684 123.054 52.8667 122.917 52.6973L116.657 44.4623L113.441 47.7156V52.2228C113.441 52.6295 113.099 53.0023 112.654 53.0023H111.422C111.012 53.0023 110.636 52.6634 110.636 52.2228V22.8073C110.636 22.4006 110.978 22.0278 111.422 22.0278H112.654C113.065 22.0278 113.441 22.3667 113.441 22.8073V43.6489L121.891 35.3462C122.028 35.2106 122.199 35.1428 122.404 35.1428H124.97C125.414 35.1428 125.62 35.6851 125.312 35.9901L118.675 42.4967L126.064 52.1889Z" fill="#16161D"></path>
    <path d="M165.235 44.0895C165.235 49.2406 169.477 53.4089 174.643 53.4089C177.551 53.4089 180.082 52.155 181.485 50.63C181.485 50.63 181.93 51.8162 182.067 52.2567C182.203 52.6634 182.614 53.0023 183.024 53.0023C183.606 53.0023 184.051 52.5617 184.051 51.9856C184.051 45.7162 184.051 26.7723 184.051 22.8073C184.051 22.3667 183.709 22.0278 183.264 22.0278H182.032C181.588 22.0278 181.245 22.3667 181.245 22.8073V37.4134C179.603 35.7528 177.072 34.7023 174.609 34.7023C169.477 34.7023 165.235 38.9045 165.235 44.0895ZM167.972 44.0895C167.972 40.4973 171.017 37.4812 174.643 37.4812C177.893 37.4812 181.28 39.9551 181.28 44.0895C181.28 47.8851 178.201 50.6639 174.643 50.6639C171.153 50.6639 167.972 47.8173 167.972 44.0895Z" fill="#16161D"></path>
    <path d="M220.211 43.5134C219.937 38.5656 215.763 34.6345 210.666 34.7023C205.603 34.7701 201.464 38.8367 201.327 43.8184C201.19 49.1051 205.466 53.4089 210.769 53.4089C214.121 53.4089 217.029 51.6806 218.706 49.1051C218.911 48.7662 218.842 48.3256 218.535 48.0884L217.508 47.2751C217.166 47.0039 216.687 47.1056 216.448 47.4445C215.285 49.3423 213.164 50.6301 210.735 50.6301C207.211 50.6301 204.337 47.9189 204.098 44.4962H219.356C219.8 44.4962 220.177 44.1234 220.177 43.6828C220.211 43.6489 220.211 43.5812 220.211 43.5134ZM204.508 41.7851C205.432 39.2773 207.895 37.4812 210.769 37.4812C213.642 37.4812 216.071 39.2773 217.029 41.7851H204.508Z" fill="#16161D"></path>
    <path d="M88.4333 37.4472H84.4307V52.2228C84.4307 52.6294 84.0886 52.9683 83.6781 52.9683H82.4807C82.0702 52.9683 81.7281 52.6294 81.7281 52.2228V37.4472H80.2228C79.6755 37.4472 79.1965 37.0066 79.1965 36.4644C79.1965 36.0239 79.436 35.6511 79.8807 35.4816C80.3597 35.3122 81.7281 34.7022 81.7281 34.7022V27.8566C81.7281 27.45 82.1044 27.1111 82.5149 27.1111H83.7123C84.1228 27.1111 84.4307 27.45 84.4307 27.8566V34.7361H88.4675C88.878 34.7361 89.2201 35.075 89.2201 35.4816V36.6677C89.2201 37.1083 88.878 37.4472 88.4333 37.4472Z" fill="#16161D"></path>
    <path d="M142.041 53.0022C141.596 53.0022 141.254 52.6633 141.254 52.2228V42.09C141.254 39.7516 139.133 37.4811 136.362 37.4811C133.693 37.4811 131.435 39.65 131.435 42.09C131.435 44.53 131.435 52.2228 131.435 52.2228C131.435 52.6633 131.093 53.0022 130.649 53.0022H129.451C129.007 53.0022 128.664 52.6633 128.664 52.2228V36.1933C128.664 35.5494 129.178 35.1428 129.691 35.1428C130.135 35.1428 130.512 35.38 130.649 35.8544C130.751 36.1594 130.957 37.515 130.957 37.515C131.743 35.7189 134.035 34.77 136.327 34.77C140.604 34.7361 143.956 37.3794 143.956 42.0561V52.1889C143.956 52.6294 143.614 52.9683 143.17 52.9683L142.041 53.0022Z" fill="#16161D"></path>
    <path d="M149.362 35.1089C149.806 35.1089 150.148 35.4478 150.148 35.8883V46.0211C150.148 48.3594 152.269 50.63 155.04 50.63C157.709 50.63 159.967 48.4611 159.967 46.0211C159.967 43.5811 159.967 35.8883 159.967 35.8883C159.967 35.4478 160.309 35.1089 160.754 35.1089H161.951C162.396 35.1089 162.738 35.4478 162.738 35.8883V51.9178C162.738 52.5617 162.225 52.9683 161.711 52.9683C161.267 52.9683 160.89 52.7311 160.754 52.2567C160.651 51.9517 160.446 50.5961 160.446 50.5961C159.659 52.3922 157.367 53.3411 155.075 53.3411C150.798 53.375 147.446 50.7317 147.446 46.055V35.9222C147.446 35.4817 147.788 35.1428 148.233 35.1428L149.362 35.1089Z" fill="#16161D"></path>
    <path d="M236.084 53.0022C235.64 53.0022 235.297 52.6633 235.297 52.2228V42.09C235.297 39.7516 233.176 37.4811 230.405 37.4811C227.737 37.4811 225.479 39.65 225.479 42.09C225.479 44.53 225.479 52.2228 225.479 52.2228C225.479 52.6633 225.137 53.0022 224.692 53.0022H223.495C223.05 53.0022 222.708 52.6633 222.708 52.2228V36.1933C222.708 35.5494 223.221 35.1428 223.734 35.1428C224.179 35.1428 224.555 35.38 224.692 35.8544C224.795 36.1594 225 37.515 225 37.515C225.787 35.7189 228.079 34.77 230.371 34.77C234.647 34.7361 238 37.3794 238 42.0561V52.1889C238 52.6294 237.658 52.9683 237.213 52.9683L236.084 53.0022Z" fill="#16161D"></path>
  </g>
  <defs>
    <clipPath id="clip0_538_3314">
      <rect width="238" height="61" fill="white"></rect>
    </clipPath>
  </defs>
</svg>
