<?xml version="1.0" encoding="UTF-8"?>
<svg xmlns="http://www.w3.org/2000/svg" width="196" height="62" viewBox="0 0 196 62" fill="none">
  <g clip-path="url(#clip0_538_3357)">
    <path d="M27.2977 15.4308C25.5575 16.9463 23.6807 15.9819 23.5442 13.9152C23.3054 10.643 22.8618 4.16746 22.6229 0.895236C22.5888 0.481902 22.8959 0.103013 23.3395 0.068569C23.6466 0.068569 24.2608 0.0341245 24.5679 -0.000319922C24.9774 -0.0347644 25.3527 0.275236 25.3868 0.723013C25.5916 3.75412 26.2399 12.7097 26.2399 12.7097C26.2399 12.7097 32.2455 7.54301 34.2587 5.78635C34.5658 5.51079 35.0776 5.54524 35.3506 5.85524C36.1013 6.81968 35.3506 5.85523 36.1013 6.81968C36.4084 7.19857 36.3402 7.64635 36.0331 7.9219C33.8151 9.81635 29.4815 13.5363 27.2977 15.4308ZM29.1403 17.3252C27.6389 19.0819 28.5944 20.9763 30.6417 21.1141C33.8834 21.3552 40.2302 21.6997 43.4718 21.9408C43.8813 21.9752 44.2566 21.6652 44.2907 21.2175C44.3249 20.9075 44.3931 20.253 44.4272 19.9775C44.4614 19.5641 44.1201 19.2197 43.6765 19.1852C40.6737 18.9786 31.836 18.4275 31.836 18.4275C31.836 18.4275 37.0226 12.3652 38.7629 10.333C39.0359 10.023 39.0017 9.50635 38.6946 9.23079C37.7392 8.47301 38.6946 9.23079 37.7392 8.47301C37.3639 8.16301 36.9203 8.2319 36.6473 8.5419C34.7364 10.7463 31.0512 15.1552 29.1403 17.3252ZM35.9648 36.8552C36.2719 37.1308 36.3402 37.5786 36.0331 37.9575C35.2824 38.9219 36.0331 37.9575 35.2824 38.9219C35.0435 39.2319 34.4976 39.2663 34.1905 38.9908C32.1772 37.2341 26.1034 32.1708 26.1034 32.1708C26.1034 32.1708 25.5575 41.0575 25.3527 44.0541C25.3186 44.5019 24.9432 44.8119 24.5338 44.7775C24.2267 44.743 23.6125 44.7086 23.3395 44.7086C22.93 44.6741 22.5888 44.2952 22.6229 43.8819C22.8618 40.6097 23.3054 34.1686 23.5442 30.8963C23.6807 28.8297 25.5916 27.7963 27.3318 29.3119C29.4133 31.103 33.6786 34.8575 35.9648 36.8552ZM36.579 36.2352C36.852 36.5452 37.2956 36.6141 37.671 36.3041C38.6264 35.5463 37.671 36.3041 38.6264 35.5463C38.9335 35.3052 38.9676 34.7541 38.6946 34.4441C36.9544 32.4119 31.8701 26.453 31.8701 26.453C31.8701 26.453 40.7079 25.7986 43.7107 25.5575C44.1543 25.523 44.4614 25.1441 44.4272 24.7308C44.3931 24.4208 44.359 23.8008 44.359 23.5252C44.3249 23.1119 43.9495 22.7675 43.54 22.8019C40.2984 23.043 33.8834 23.4563 30.6417 23.6975C28.5944 23.8352 27.6389 25.7297 29.1403 27.4863C31.0171 29.6908 34.7023 34.0308 36.579 36.2352ZM8.46205 7.9219C8.15495 7.64635 8.0867 7.19857 8.39381 6.81968C9.1445 5.85523 8.3938 6.81968 9.1445 5.85524C9.38336 5.54524 9.92932 5.51079 10.2364 5.78635C12.2497 7.54301 18.2893 12.6752 18.2893 12.6752C18.2893 12.6752 18.8694 3.75412 19.0742 0.723013C19.1083 0.275236 19.4836 -0.0347644 19.8931 -0.000319922C20.2002 0.0341245 20.8144 0.068569 21.0874 0.068569C21.4969 0.103013 21.8381 0.481902 21.804 0.895236C21.5651 4.16746 21.1898 10.5741 20.9509 13.8808C20.8144 15.9475 18.9377 16.9119 17.1974 15.3963C15.0136 13.4675 10.6459 9.81635 8.46205 7.9219ZM7.84784 8.5419C7.57486 8.2319 7.13127 8.16301 6.75592 8.47301C5.80049 9.23079 6.75592 8.47301 5.80049 9.23079C5.49339 9.4719 5.45926 10.023 5.73224 10.333C7.4725 12.3652 12.625 18.3586 12.625 18.3586C12.625 18.3586 3.71901 18.9786 0.716229 19.1852C0.272636 19.2197 -0.0344669 19.5986 -0.00034431 20.0119C0.0337783 20.3219 0.0679008 20.9419 0.0679008 21.2175C0.102023 21.6308 0.477371 21.9752 0.886842 21.9408C4.12849 21.6997 10.5776 21.3552 13.8193 21.1141C15.969 20.9763 16.6173 18.8408 15.3207 17.3252C13.4439 15.1552 9.72458 10.7463 7.84784 8.5419ZM17.1292 29.3808C18.8694 27.8652 20.7462 28.8297 20.8827 30.8963C21.1215 34.1686 21.5651 40.6097 21.804 43.8819C21.8381 44.2952 21.531 44.6741 21.0874 44.7086C20.7803 44.743 20.1661 44.7775 19.8931 44.7775C19.4836 44.8119 19.1083 44.5019 19.0742 44.0541C18.8694 41.023 18.2552 32.0675 18.2552 32.0675C18.2552 32.0675 12.2497 37.1997 10.2705 38.9563C9.96344 39.2319 9.4516 39.1975 9.17862 38.8875C8.42793 37.923 9.17862 38.8875 8.42793 37.923C8.12082 37.5441 8.18907 37.0963 8.49617 36.8208C10.6118 34.9263 14.9453 31.2752 17.1292 29.3808ZM15.3548 27.6241C16.8562 25.8675 15.9008 23.973 13.8534 23.8352C10.6118 23.5941 4.16261 23.0775 0.920965 22.8363C0.511494 22.8019 0.136146 23.1119 0.102023 23.5597C0.0679008 23.8697 0.0337783 24.4552 -0.00034431 24.7652C-0.0344669 25.1786 0.272636 25.5575 0.716229 25.5919C3.71901 25.7986 12.625 26.3497 12.625 26.3497C12.625 26.3497 7.4725 32.4119 5.69812 34.4441C5.42514 34.7541 5.45926 35.2708 5.76637 35.5463C6.7218 36.3041 5.76637 35.5463 6.7218 36.3041C7.09715 36.6141 7.54074 36.5452 7.81372 36.2352C9.72458 34.0308 13.4439 29.8286 15.3548 27.6241Z" fill="#16161D"></path>
    <path d="M57.2577 35.2367C52.071 35.2367 47.8398 39.5078 47.8398 44.7434C47.8398 49.9789 52.071 54.25 57.2577 54.25C62.4443 54.25 66.6755 49.9789 66.6755 44.7434C66.6755 39.5078 62.4784 35.2367 57.2577 35.2367ZM57.2918 51.46C53.6066 51.46 50.6379 48.4634 50.6379 44.7434C50.6379 41.0234 53.6066 38.0267 57.2918 38.0267C60.9429 38.0267 63.8433 41.0234 63.8774 44.7434C63.8774 48.4634 60.977 51.46 57.2918 51.46Z" fill="#16161D"></path>
    <path d="M29.1407 17.3255C27.6393 19.0477 28.5947 20.9422 30.6079 21.08C33.8154 21.3211 40.2646 21.7689 43.4721 22.01C43.8816 22.0444 44.257 21.7344 44.2911 21.2866C44.3252 20.9766 44.3593 20.3911 44.3593 20.0811C44.3934 19.6677 44.0863 19.2889 43.6427 19.2544C40.6741 19.0477 31.7681 18.4277 31.7681 18.4277C31.7681 18.4277 36.9547 12.4 38.695 10.4022C38.968 10.0922 38.9338 9.57552 38.6267 9.33441C37.7054 8.57664 38.6267 9.33441 37.7054 8.57664C37.3301 8.26664 36.8865 8.33552 36.6476 8.64552C34.7709 10.8155 31.0174 15.1555 29.1407 17.3255Z" fill="#16161D"></path>
    <path d="M36.6476 36.2012C36.9206 36.5112 37.3301 36.5801 37.7054 36.2701C38.6267 35.5123 37.7054 36.2701 38.6267 35.5123C38.9338 35.2712 38.9679 34.7201 38.695 34.4445C36.9547 32.4467 31.7681 26.4189 31.7681 26.4189C31.7681 26.4189 40.6741 25.799 43.6427 25.5923C44.0863 25.5578 44.3593 25.179 44.3593 24.7656C44.3252 24.4556 44.2911 23.8701 44.2911 23.5601C44.2569 23.1467 43.8816 22.8023 43.4721 22.8367C40.2646 23.0778 33.8154 23.5256 30.6079 23.7667C28.5947 23.9045 27.6393 25.7645 29.1407 27.5212C31.0174 29.6567 34.7709 34.0312 36.6476 36.2012Z" fill="#16161D"></path>
    <path d="M93.1546 54.2156C90.0153 54.2156 87.8997 52.4245 87.4903 52.08H87.4561C86.9102 51.6322 86.8761 51.1156 87.2855 50.5989L87.6609 50.1167C87.8315 49.91 88.0703 49.6689 88.3774 49.6345C88.6163 49.6 88.8552 49.7034 89.1282 49.91C89.6059 50.3234 91.2779 51.6322 93.1887 51.6322C94.8949 51.6322 96.1233 50.6334 96.1233 49.2211C96.1233 47.8778 95.0655 46.9823 91.9603 45.6734C89.2646 44.5367 87.2173 43.4 87.2173 40.1622C87.2173 38.1645 88.7869 35.2367 93.0864 35.2367C95.5773 35.2367 97.4199 36.4078 97.6588 36.58C97.8294 36.6834 98.0341 36.8556 98.1024 37.1656C98.1706 37.3722 98.1706 37.6822 97.9659 38.0956L97.727 38.5089C97.5564 38.8189 97.1128 39.3011 96.2256 38.8189C95.1678 38.1989 94.383 37.8889 93.0864 37.8889C90.6978 37.8889 90.0495 39.3356 90.0495 40.1967C90.0495 41.6434 91.0731 42.3322 93.1887 43.1934C96.4304 44.5022 99.0919 45.8456 99.0919 49.1867C99.1261 51.9423 96.4304 54.2156 93.1546 54.2156Z" fill="#16161D"></path>
    <path d="M116.972 53.0445C117.211 53.3889 116.972 53.8367 116.563 53.8367H114.413C114.174 53.8367 113.969 53.7334 113.833 53.5611L107.588 45.1911L104.381 48.4978V53.0789C104.381 53.4923 104.04 53.8711 103.596 53.8711H102.368C101.958 53.8711 101.583 53.5267 101.583 53.0789V23.1811C101.583 22.7678 101.924 22.3889 102.368 22.3889H103.596C104.006 22.3889 104.381 22.7334 104.381 23.1811V44.3645L112.809 35.9256C112.946 35.7878 113.116 35.7189 113.321 35.7189H115.88C116.324 35.7189 116.529 36.27 116.221 36.58L109.602 43.1934L116.972 53.0445Z" fill="#16161D"></path>
    <path d="M136.559 44.2267C136.286 39.1978 132.123 35.2023 127.038 35.2711C121.988 35.34 117.859 39.4734 117.723 44.5367C117.586 49.91 121.852 54.2845 127.141 54.2845C130.485 54.2845 133.385 52.5278 135.057 49.91C135.262 49.5656 135.194 49.1178 134.887 48.8767L133.863 48.05C133.522 47.7745 133.044 47.8778 132.805 48.2223C131.645 50.1511 129.529 51.46 127.107 51.46C123.592 51.46 120.726 48.7045 120.487 45.2256H135.706C136.149 45.2256 136.524 44.8467 136.524 44.3989C136.559 44.3645 136.559 44.2956 136.559 44.2267ZM120.93 42.47C121.852 39.9211 124.309 38.0956 127.175 38.0956C130.041 38.0956 132.464 39.9211 133.419 42.47H120.93Z" fill="#16161D"></path>
    <path d="M54.016 33.1011H55.2103C55.6197 33.1011 55.961 32.7567 55.961 32.3089V29.5533C55.961 29.1056 55.6197 28.7611 55.2103 28.7611H54.016C53.6065 28.7611 53.2653 29.1056 53.2653 29.5533V32.3089C53.2312 32.7567 53.5724 33.1011 54.016 33.1011Z" fill="#16161D"></path>
    <path d="M59.3049 33.1011H60.4992C60.9087 33.1011 61.2499 32.7567 61.2499 32.3089V29.5533C61.2499 29.1056 60.9087 28.7611 60.4992 28.7611H59.3049C58.8955 28.7611 58.5542 29.1056 58.5542 29.5533V32.3089C58.5201 32.7567 58.8613 33.1011 59.3049 33.1011Z" fill="#16161D"></path>
    <path d="M176.38 38.0611H172.387V53.1133C172.387 53.5266 172.046 53.8711 171.637 53.8711H170.442C170.033 53.8711 169.692 53.5266 169.692 53.1133V38.0266H168.19C167.644 38.0266 167.167 37.51 167.167 36.9589C167.167 36.5111 167.405 36.1322 167.849 35.96C168.327 35.7877 169.692 35.1677 169.692 35.1677V28.3477C169.692 27.9344 170.067 27.59 170.476 27.59H171.671C172.08 27.59 172.387 27.9344 172.387 28.3477V35.2022H176.414C176.823 35.2022 177.164 35.5466 177.164 35.96V37.2689C177.164 37.7166 176.823 38.0611 176.38 38.0611Z" fill="#16161D"></path>
    <path d="M156.827 35.2367C151.641 35.2367 147.409 39.5078 147.409 44.7434C147.409 49.9789 151.641 54.25 156.827 54.25C162.014 54.25 166.245 49.9789 166.245 44.7434C166.245 39.5078 162.048 35.2367 156.827 35.2367ZM156.861 51.46C153.176 51.46 150.207 48.4634 150.207 44.7434C150.207 41.0234 153.176 38.0267 156.861 38.0267C160.512 38.0267 163.413 41.0234 163.447 44.7434C163.447 48.4634 160.547 51.46 156.861 51.46Z" fill="#16161D"></path>
    <path d="M186.582 35.2711C181.395 35.2711 177.164 39.5422 177.164 44.7778C177.164 50.0133 181.395 54.2845 186.582 54.2845C191.769 54.2845 196 50.0133 196 44.7778C196 39.5422 191.803 35.2711 186.582 35.2711ZM186.616 51.4944C182.931 51.4944 179.962 48.4978 179.962 44.7778C179.962 41.0578 182.931 38.0611 186.616 38.0611C190.267 38.0611 193.168 41.0578 193.202 44.7778C193.202 48.4978 190.301 51.4944 186.616 51.4944Z" fill="#16161D"></path>
    <path d="M82.5425 53.8712C82.0989 53.8712 81.7577 53.5267 81.7577 53.0789V42.78C81.7577 40.4034 79.6421 38.0956 76.8781 38.0956C74.2166 38.0956 71.9645 40.3 71.9645 42.78C71.9645 45.26 71.9645 53.0789 71.9645 53.0789C71.9645 53.5267 71.6233 53.8712 71.1797 53.8712H69.9854C69.5418 53.8712 69.2006 53.5267 69.2006 53.0789V36.7867C69.2006 36.1323 69.7124 35.7189 70.2242 35.7189C70.6678 35.7189 71.0432 35.9601 71.1797 36.4423C71.282 36.7523 71.4868 38.13 71.4868 38.13C72.2716 36.3045 74.5578 35.34 76.844 35.34C81.1093 35.3056 84.4533 37.9923 84.4533 42.7456V53.0445C84.4533 53.4923 84.1121 53.8367 83.6685 53.8367L82.5425 53.8712Z" fill="#16161D"></path>
    <path d="M146.556 25.1789C144.611 25.1789 142.632 27.2456 142.632 29.9323C142.632 31.2067 142.632 35.2367 142.632 35.2367H146.693C147.102 35.2367 147.478 35.5811 147.478 36.0289V37.2689C147.478 37.6822 147.137 38.0611 146.693 38.0611H142.632V61.2078C142.632 61.6211 142.291 62 141.848 62H140.619C140.21 62 139.834 61.6556 139.834 61.2078V38.0611H138.299C137.753 38.0611 137.343 37.5445 137.343 37.0622C137.343 36.6489 137.582 36.2356 138.026 36.0634C138.504 35.8911 139.834 35.2711 139.834 35.2711C139.834 35.2711 139.834 31.2756 139.834 29.9667C139.834 25.5922 143.281 22.3889 146.386 22.3889H146.625C147.034 22.3889 147.41 22.7334 147.41 23.1811V24.4211C147.41 24.8345 147.068 25.2134 146.625 25.2134H146.556V25.1789Z" fill="#16161D"></path>
  </g>
  <defs>
    <clipPath id="clip0_538_3357">
      <rect width="196" height="62" fill="white"></rect>
    </clipPath>
  </defs>
</svg>
